<?xml version="1.0" encoding="UTF-8"?>
<svg width="91px" height="91px" viewBox="0 0 91 91" version="1.1" xmlns="http://www.w3.org/2000/svg" xmlns:xlink="http://www.w3.org/1999/xlink">
    <!-- Generator: Sketch 55.2 (78181) - https://sketchapp.com -->
    <title>Train</title>
    <desc>Created with Sketch.</desc>
    <defs>
        <polygon id="path-1" points="0.00018019802 0.714648936 90.8774653 0.714648936 90.8774653 36.9405941 0.00018019802 36.9405941"></polygon>
    </defs>
    <g id="Page-1" stroke="none" stroke-width="1" fill="none" fill-rule="evenodd">
        <g id="Consultant-Home" transform="translate(-915.000000, -3107.000000)">
            <g id="Train" transform="translate(915.000000, 3107.000000)">
                <path d="M45.4388228,51.1184842 C46.2226842,51.1184842 46.8587832,51.7545832 46.8587832,52.5384446 C46.8587832,53.3223059 46.2226842,53.958405 45.4388228,53.958405 C44.6549614,53.958405 44.0188624,53.3223059 44.0188624,52.5384446 C44.0188624,51.7545832 44.6549614,51.1184842 45.4388228,51.1184842" id="Fill-1" fill="#FFFFFF"></path>
                <path d="M9.93945248,33.319605 L9.93945248,4.30231782 C9.93584851,3.50944653 10.5665416,2.85893168 11.3594129,2.84001089 L79.5184129,2.84001089 C80.3103832,2.85893168 80.9419772,3.50944653 80.9374723,4.30231782 L80.9374723,49.6563574 C80.9419772,50.4492287 80.3103832,51.0988426 79.5184129,51.1186644 L51.118304,51.1186644 C50.3344426,51.1186644 49.6983436,51.7538624 49.6983436,52.5386248 C49.6983436,53.3224861 50.3344426,53.9585851 51.118304,53.9585851 L79.5184129,53.9585851 C81.8790069,53.9387634 83.781898,52.0169515 83.7774011,49.6563574 L83.7774011,4.30231782 C83.781898,1.94172376 81.8790069,0.0199118812 79.5184129,9.00990099e-05 L11.3594129,9.00990099e-05 C8.99881881,0.0199118812 7.09592772,1.94172376 7.10042469,4.30231782 L7.10042469,36.6631792 C7.90681881,35.4369317 8.86006634,34.314298 9.93945248,33.319605" id="Fill-3" fill="#FFFFFF"></path>
                <g id="Group-7" transform="translate(0.000000, 53.936871)">
                    <mask id="mask-2" fill="white">
                        <use xlink:href="#path-1"></use>
                    </mask>
                    <g id="Clip-6"></g>
                    <path d="M14.1997842,9.96134653 C16.5522693,9.96134653 18.4596653,11.8687426 18.4596653,14.2212277 C18.4596653,16.5737129 16.5522693,18.4811089 14.1997842,18.4811089 C11.847299,18.4811089 9.93900198,16.5737129 9.93900198,14.2212277 C9.93900198,11.8687426 11.847299,9.96134653 14.1997842,9.96134653 M29.8193485,3.57152475 C32.1718337,3.57152475 34.0783287,5.47892079 34.0783287,7.83140594 C34.0783287,10.1838911 32.1718337,12.0912871 29.8193485,12.0912871 C27.4668634,12.0912871 25.5585663,10.1838911 25.5585663,7.83140594 C25.5585663,5.47892079 27.4668634,3.57152475 29.8193485,3.57152475 M45.4389129,9.96134653 C47.791398,9.96134653 49.6978931,11.8687426 49.6978931,14.2212277 C49.6978931,16.5737129 47.791398,18.4811089 45.4389129,18.4811089 C43.0864277,18.4811089 41.1781307,16.5737129 41.1781307,14.2212277 C41.1781307,11.8687426 43.0864277,9.96134653 45.4389129,9.96134653 M61.0584772,3.57152475 C63.4109624,3.57152475 65.3174574,5.47892079 65.3174574,7.83140594 C65.3174574,10.1838911 63.4109624,12.0912871 61.0584772,12.0912871 C58.7050911,12.0912871 56.797695,10.1838911 56.797695,7.83140594 C56.797695,5.47892079 58.7050911,3.57152475 61.0584772,3.57152475 M76.6780416,9.96134653 C79.0305267,9.96134653 80.9370218,11.8687426 80.9370218,14.2212277 C80.9370218,16.5737129 79.0305267,18.4811089 76.6780416,18.4811089 C74.3246554,18.4811089 72.4172594,16.5737129 72.4172594,14.2212277 C72.4172594,11.8687426 74.3246554,9.96134653 76.6780416,9.96134653 M81.8677446,19.0559406 C84.5427842,16.1898911 84.3887149,11.6975545 81.5226653,9.02161386 C78.6557149,6.34567327 74.1633782,6.50064356 71.4874376,9.36669307 C70.267497,10.6731287 69.5863485,12.3913168 69.5782396,14.1788812 C68.543002,13.5211584 67.4221703,13.009396 66.2481802,12.6598119 C68.9232198,9.79286139 68.7691505,5.30052475 65.903101,2.62458416 C63.0361505,-0.0513564356 58.5438139,0.103613861 55.8678733,2.96966337 C53.3216752,5.69786139 53.3216752,9.93161386 55.8678733,12.6598119 C54.6929822,13.010297 53.5730515,13.5211584 52.5387149,14.1788812 C52.5387149,10.2577723 49.3591208,7.07907921 45.4389129,7.07907921 C41.516903,7.07907921 38.3391109,10.2577723 38.3391109,14.1788812 C37.3047743,13.5211584 36.1830416,13.009396 35.0090515,12.6598119 C37.6840911,9.79286139 37.5309228,5.30052475 34.6639723,2.62458416 C31.7970218,-0.0513564356 27.3046851,0.103613861 24.6287446,2.96966337 C22.0825465,5.69786139 22.0825465,9.93161386 24.6287446,12.6598119 C23.4538535,13.010297 22.3339228,13.5211584 21.2995861,14.1788812 C21.2851703,10.2577723 18.0947644,7.08989109 14.1745564,7.10520792 C10.2525465,7.11872277 7.08556634,10.3091287 7.09998218,14.2302376 C7.10628911,16.019604 7.78833861,17.740495 9.0091802,19.0487327 C3.79064554,20.6110495 0.00018019802,25.1331188 0.00018019802,30.4723861 L0.00018019802,35.5206337 C0.00018019802,36.304495 0.635378218,36.9405941 1.4192396,36.9405941 C2.20490297,36.9405941 2.84010099,36.304495 2.84010099,35.5206337 L2.84010099,30.4723861 C2.84010099,25.4250396 7.37658614,21.3210297 12.9501109,21.3210297 L15.4494574,21.3210297 C21.0220812,21.3210297 25.5585663,25.4250396 25.5585663,30.4723861 L25.5585663,35.5206337 C25.5585663,36.304495 26.1946653,36.9405941 26.9794277,36.9405941 C27.7632891,36.9405941 28.3993881,36.304495 28.3993881,35.5206337 L28.3993881,30.4723861 C28.3993881,25.3394455 24.8918337,20.9660396 19.9859426,19.2550594 C21.9681208,16.4971287 25.1738436,14.8825545 28.5696752,14.9312079 L31.0690218,14.9312079 C34.4648535,14.8807525 37.6714772,16.4962277 39.6527545,19.2550594 C34.7468634,20.9660396 31.2393089,25.3394455 31.2393089,30.4723861 L31.2393089,35.5206337 C31.2393089,36.304495 31.8745069,36.9405941 32.6583683,36.9405941 C33.4431307,36.9405941 34.0783287,36.304495 34.0783287,35.5206337 L34.0783287,30.4723861 C34.0783287,25.4250396 38.6157149,21.3210297 44.1892396,21.3210297 L46.6885861,21.3210297 C52.2612099,21.3210297 56.797695,25.4250396 56.797695,30.4723861 L56.797695,35.5206337 C56.797695,36.304495 57.4337941,36.9405941 58.2176554,36.9405941 C59.0033188,36.9405941 59.6385168,36.304495 59.6385168,35.5206337 L59.6385168,30.4723861 C59.6385168,25.3394455 56.1309624,20.9660396 51.2250713,19.2550594 C53.2072495,16.4971287 56.4129723,14.8825545 59.808804,14.9312079 L62.3081505,14.9312079 C65.7039822,14.8807525 68.9106059,16.4962277 70.8918832,19.2550594 C65.9859921,20.9660396 62.4784376,25.3394455 62.4784376,30.4723861 L62.4784376,35.5206337 C62.4784376,36.304495 63.1136356,36.9405941 63.898398,36.9405941 C64.6822594,36.9405941 65.3174574,36.304495 65.3174574,35.5206337 L65.3174574,30.4723861 C65.3174574,25.4250396 69.8548436,21.3210297 75.4283683,21.3210297 L77.9268139,21.3210297 C83.5003386,21.3210297 88.0377248,25.4250396 88.0377248,30.4723861 L88.0377248,35.5206337 C88.0377248,36.304495 88.6729228,36.9405941 89.4567842,36.9405941 C90.2415465,36.9405941 90.8776455,36.304495 90.8776455,35.5206337 L90.8776455,30.4723861 C90.8776455,25.1331188 87.0862792,20.6110495 81.8677446,19.0559406" id="Fill-5" fill="#FFFFFF" mask="url(#mask-2)"></path>
                </g>
                <path d="M39.7592515,53.9583149 C40.5431129,53.9583149 41.1783109,53.3222158 41.1783109,52.5383545 L41.1783109,46.1485327 C41.0900139,40.2569584 37.5392119,34.9708495 32.1197564,32.6589089 C31.3935584,33.4797109 30.5457267,34.1833842 29.6059941,34.746503 C34.6965881,36.2295327 38.2338752,40.8480079 38.3392911,46.1485327 L38.3392911,52.5383545 C38.3392911,53.3222158 38.9744891,53.9583149 39.7592515,53.9583149" id="Fill-8" fill="#FFFFFF"></path>
                <path d="M8.51931188,53.9583149 C9.30407426,53.9583149 9.93927228,53.3222158 9.93927228,52.5383545 L9.93927228,46.1485327 C10.0329752,40.837196 13.5711634,36.204305 18.6725693,34.7185723 C17.7328366,34.1554535 16.885005,33.4508792 16.1588069,32.6309782 C10.7294406,34.9465228 7.17773762,40.2470475 7.10025248,46.1485327 L7.10025248,52.5383545 C7.10025248,53.3222158 7.7354505,53.9583149 8.51931188,53.9583149" id="Fill-10" fill="#FFFFFF"></path>
                <path d="M24.1396871,30.5290584 C21.3943703,30.5290584 19.1689248,28.3045139 19.1689248,25.559197 C19.1689248,22.8147812 21.3943703,20.5893356 24.1396871,20.5893356 C26.884103,20.5893356 29.1095485,22.8147812 29.1095485,25.559197 C29.1095485,28.3045139 26.884103,30.5290584 24.1396871,30.5290584 M24.1396871,17.7494149 C19.8257465,17.7494149 16.329905,21.2461574 16.329905,25.559197 C16.329905,29.8722366 19.8257465,33.3689792 24.1396871,33.3689792 C28.4527267,33.3689792 31.9494693,29.8722366 31.9494693,25.559197 C31.9494693,21.2461574 28.4527267,17.7494149 24.1396871,17.7494149" id="Fill-12" fill="#FFFFFF"></path>
                <path d="M52.6590871,30.7846693 L59.9508,21.4134713 L64.6080178,23.8911941 C65.1945624,24.2047386 65.9216614,24.0686891 66.3541366,23.5641347 L73.1277802,15.6903822 L73.1277802,16.066996 C73.1277802,16.8508574 73.7638792,17.4869564 74.5477406,17.4869564 C75.332503,17.4869564 75.967701,16.8508574 75.967701,16.066996 L75.8685921,11.3593228 C75.8523743,10.5754614 75.2027604,9.95287723 74.418899,9.96909505 C74.2792455,9.97179802 74.1413941,9.99612475 74.0080475,10.0393723 L69.3859683,11.5377188 C68.6868,11.8918079 68.4074931,12.7468475 68.7624832,13.4460158 C69.047196,14.0073327 69.6688792,14.3145703 70.2878594,14.1992436 L70.8203446,14.0289564 L64.9350772,20.8449465 L60.2562356,18.3392931 C59.6471663,18.0122337 58.8921366,18.1708079 58.4668693,18.7150059 L51.1688495,28.0726891 L46.4179287,25.4102634 C45.8611168,25.0976198 45.1637505,25.1967287 44.7150574,25.6517287 L40.1776713,30.2449762 C39.6001366,30.7747584 39.5604931,31.6730455 40.0902752,32.2514812 C40.6200574,32.8299168 41.5183446,32.8686594 42.0958792,32.3388772 C42.1301168,32.3073426 42.1634535,32.2749069 42.1940871,32.2406693 L45.9638297,28.3997485 L50.8345822,31.1324515 C51.4445525,31.4856396 52.2221069,31.3378772 52.6590871,30.7846693" id="Fill-14" fill="#FFFFFF"></path>
                <path d="M75.2577208,35.4990099 C75.2577208,34.7151485 74.6225228,34.0790495 73.8377604,34.0790495 L53.9583149,34.0790495 C53.1744535,34.0790495 52.5383545,34.7151485 52.5383545,35.4990099 C52.5383545,36.2837723 53.1744535,36.9189703 53.9583149,36.9189703 L73.8377604,36.9189703 C74.6225228,36.9189703 75.2577208,36.2837723 75.2577208,35.4990099" id="Fill-16" fill="#FFFFFF"></path>
                <path d="M53.9585851,39.7588911 C53.1747238,39.7588911 52.5386248,40.3949901 52.5386248,41.1788515 C52.5386248,41.9627129 53.1747238,42.5988119 53.9585851,42.5988119 L65.5525257,42.5988119 C66.3363871,42.5988119 66.9715851,41.9627129 66.9715851,41.1788515 C66.9715851,40.3949901 66.3363871,39.7588911 65.5525257,39.7588911 L53.9585851,39.7588911 Z" id="Fill-18" fill="#FFFFFF"></path>
            </g>
        </g>
    </g>
</svg>