<?xml version="1.0" encoding="UTF-8"?>
<svg width="95px" height="91px" viewBox="0 0 95 91" version="1.1" xmlns="http://www.w3.org/2000/svg" xmlns:xlink="http://www.w3.org/1999/xlink">
    <!-- Generator: Sketch 55.2 (78181) - https://sketchapp.com -->
    <title>Group 16</title>
    <desc>Created with Sketch.</desc>
    <g id="Page-1" stroke="none" stroke-width="1" fill="none" fill-rule="evenodd">
        <g id="Consultant-Home" transform="translate(-1367.000000, -3107.000000)">
            <g id="Group-16" transform="translate(1367.000000, 3107.000000)">
                <path d="M45.8769718,87.7685632 L91.768662,87.7685632 L91.768662,61.4160338 L45.8769718,61.4160338 L45.8769718,87.7685632 Z M71.3530282,58.7984456 L50.065,58.7984456 L63.1509155,49.8978426 C64.7217606,51.2936221 66.9910563,51.8168721 68.9097887,50.9443426 L72.5733099,56.3548279 C71.8761972,57.2273574 71.5269718,57.9259162 71.3530282,58.7984456 L71.3530282,58.7984456 Z M41.515,64.7321809 L43.4337324,63.5103721 L43.4337324,74.8545926 L40.4673239,70.4906074 C41.8628873,68.9195191 42.2121127,66.6512103 41.515,64.7321809 L41.515,64.7321809 Z M30.1725352,65.6033721 L68.0373944,39.7754309 L81.1246479,58.9724162 L74.1441549,58.9724162 C74.3194366,58.6231368 74.668662,58.0998868 75.0178873,57.9259162 L76.0642254,57.2273574 L69.6082394,47.8035044 L68.5605634,48.500725 C67.8634507,49.023975 67.165,49.1992838 66.2926056,49.023975 C65.4202113,48.8500044 64.8970423,48.500725 64.3738732,47.8035044 L63.6754225,46.7556662 L45.5277465,59.1463868 L43.4337324,59.1463868 L43.4337324,60.5435044 L38.0240845,64.2075926 L38.7225352,65.2554309 C39.5949296,66.6512103 39.2457042,68.5715779 37.8501408,69.4441074 L36.8024648,69.9673574 L43.2584507,79.5665191 L43.2584507,84.9756662 L30.1725352,65.6033721 Z M2.77640845,72.5849456 L2.77640845,2.95254853 L59.8366197,2.95254853 L59.8366197,42.0437397 L26.5076761,64.9061515 L31.7433803,72.7602544 L2.77640845,72.7602544 L2.77640845,72.5849456 Z M84.266338,58.7984456 L68.7358451,35.9360338 L62.6290845,40.1233721 L62.6290845,0.333622059 L0.334507042,0.333622059 L0.334507042,75.2025338 L33.8360563,75.2025338 L43.6090141,89.5136221 L43.6090141,90.3861515 L94.3858451,90.3861515 L94.3858451,58.7984456 L84.266338,58.7984456 Z" id="Fill-1" fill="#FFFFFF"></path>
                <path d="M45.8769718,87.7685632 L91.768662,87.7685632 L91.768662,61.4160338 L45.8769718,61.4160338 L45.8769718,87.7685632 Z M71.3530282,58.7984456 L50.065,58.7984456 L63.1509155,49.8978426 C64.7217606,51.2936221 66.9910563,51.8168721 68.9097887,50.9443426 L72.5733099,56.3548279 C71.8761972,57.2273574 71.5269718,57.9259162 71.3530282,58.7984456 Z M41.515,64.7321809 L43.4337324,63.5103721 L43.4337324,74.8545926 L40.4673239,70.4906074 C41.8628873,68.9195191 42.2121127,66.6512103 41.515,64.7321809 Z M30.1725352,65.6033721 L68.0373944,39.7754309 L81.1246479,58.9724162 L74.1441549,58.9724162 C74.3194366,58.6231368 74.668662,58.0998868 75.0178873,57.9259162 L76.0642254,57.2273574 L69.6082394,47.8035044 L68.5605634,48.500725 C67.8634507,49.023975 67.165,49.1992838 66.2926056,49.023975 C65.4202113,48.8500044 64.8970423,48.500725 64.3738732,47.8035044 L63.6754225,46.7556662 L45.5277465,59.1463868 L43.4337324,59.1463868 L43.4337324,60.5435044 L38.0240845,64.2075926 L38.7225352,65.2554309 C39.5949296,66.6512103 39.2457042,68.5715779 37.8501408,69.4441074 L36.8024648,69.9673574 L43.2584507,79.5665191 L43.2584507,84.9756662 L30.1725352,65.6033721 Z M2.77640845,72.5849456 L2.77640845,2.95254853 L59.8366197,2.95254853 L59.8366197,42.0437397 L26.5076761,64.9061515 L31.7433803,72.7602544 L2.77640845,72.7602544 L2.77640845,72.5849456 Z M84.266338,58.7984456 L68.7358451,35.9360338 L62.6290845,40.1233721 L62.6290845,0.333622059 L0.334507042,0.333622059 L0.334507042,75.2025338 L33.8360563,75.2025338 L43.6090141,89.5136221 L43.6090141,90.3861515 L94.3858451,90.3861515 L94.3858451,58.7984456 L84.266338,58.7984456 Z" id="Stroke-3" stroke="#FFFFFF" stroke-width="0.6655"></path>
                <path d="M51.634507,72.2356662 C54.2530282,71.7124162 56.1730986,69.7920485 56.6949296,67.1744603 L80.9493662,67.1744603 C81.4738732,69.7920485 83.3926056,71.7124162 86.0097887,72.2356662 L86.0097887,77.1229015 C83.3926056,77.6461515 81.4738732,79.5665191 80.9493662,82.1841074 L56.6949296,82.1841074 C56.1730986,79.5665191 54.2530282,77.6461515 51.634507,77.1229015 L51.634507,72.2356662 Z M54.2530282,83.4059162 L54.2530282,84.6263868 L83.5678873,84.6263868 L83.5678873,83.4059162 C83.5678873,81.3115779 85.3126761,79.5665191 87.4053521,79.5665191 L88.6269718,79.5665191 L88.6269718,69.7920485 L87.4053521,69.7920485 C85.3126761,69.7920485 83.5678873,68.0469897 83.5678873,65.9526515 L83.5678873,64.7321809 L54.2530282,64.7321809 L54.2530282,65.9526515 C54.2530282,68.0469897 52.5069014,69.7920485 50.4142254,69.7920485 L49.0173239,69.7920485 L49.0173239,79.5665191 L50.2389437,79.5665191 C52.5069014,79.5665191 54.2530282,81.3115779 54.2530282,83.4059162 L54.2530282,83.4059162 Z" id="Fill-4" fill="#FFFFFF"></path>
                <path d="M51.634507,72.2356662 C54.2530282,71.7124162 56.1730986,69.7920485 56.6949296,67.1744603 L80.9493662,67.1744603 C81.4738732,69.7920485 83.3926056,71.7124162 86.0097887,72.2356662 L86.0097887,77.1229015 C83.3926056,77.6461515 81.4738732,79.5665191 80.9493662,82.1841074 L56.6949296,82.1841074 C56.1730986,79.5665191 54.2530282,77.6461515 51.634507,77.1229015 L51.634507,72.2356662 Z M54.2530282,83.4059162 L54.2530282,84.6263868 L83.5678873,84.6263868 L83.5678873,83.4059162 C83.5678873,81.3115779 85.3126761,79.5665191 87.4053521,79.5665191 L88.6269718,79.5665191 L88.6269718,69.7920485 L87.4053521,69.7920485 C85.3126761,69.7920485 83.5678873,68.0469897 83.5678873,65.9526515 L83.5678873,64.7321809 L54.2530282,64.7321809 L54.2530282,65.9526515 C54.2530282,68.0469897 52.5069014,69.7920485 50.4142254,69.7920485 L49.0173239,69.7920485 L49.0173239,79.5665191 L50.2389437,79.5665191 C52.5069014,79.5665191 54.2530282,81.3115779 54.2530282,83.4059162 Z" id="Stroke-5" stroke="#FFFFFF" stroke-width="0.6655"></path>
                <path d="M68.9100563,72.4101721 C70.1316761,72.4101721 71.1780141,73.4580103 71.1780141,74.6798191 C71.1780141,75.9002897 70.1316761,76.9481279 68.9100563,76.9481279 C67.6884366,76.9481279 66.6420986,75.9002897 66.6420986,74.6798191 C66.6420986,73.4580103 67.6884366,72.4101721 68.9100563,72.4101721 M68.9100563,79.3917456 C71.5272394,79.3917456 73.7951972,77.2974074 73.7951972,74.5045103 C73.7951972,71.8869221 71.7025211,69.6186132 68.9100563,69.6186132 C66.2928732,69.6186132 64.0249155,71.7129515 64.0249155,74.5045103 C64.0249155,77.2974074 66.1175915,79.3917456 68.9100563,79.3917456" id="Fill-6" fill="#FFFFFF"></path>
                <path d="M68.9100563,72.4101721 C70.1316761,72.4101721 71.1780141,73.4580103 71.1780141,74.6798191 C71.1780141,75.9002897 70.1316761,76.9481279 68.9100563,76.9481279 C67.6884366,76.9481279 66.6420986,75.9002897 66.6420986,74.6798191 C66.6420986,73.4580103 67.6884366,72.4101721 68.9100563,72.4101721 Z M68.9100563,79.3917456 C71.5272394,79.3917456 73.7951972,77.2974074 73.7951972,74.5045103 C73.7951972,71.8869221 71.7025211,69.6186132 68.9100563,69.6186132 C66.2928732,69.6186132 64.0249155,71.7129515 64.0249155,74.5045103 C64.0249155,77.2974074 66.1175915,79.3917456 68.9100563,79.3917456 Z" id="Stroke-7" stroke="#FFFFFF" stroke-width="0.6655"></path>
                <path d="M11.6769718,23.6617397 L50.9373944,23.6617397 L50.9373944,10.3971515 L11.6769718,10.3971515 L11.6769718,23.6617397 Z M9.05978873,26.2793279 L53.5545775,26.2793279 L53.5545775,7.77956324 L9.05978873,7.77956324 L9.05978873,26.2793279 Z" id="Fill-8" fill="#FFFFFF"></path>
                <path d="M11.6769718,23.6617397 L50.9373944,23.6617397 L50.9373944,10.3971515 L11.6769718,10.3971515 L11.6769718,23.6617397 Z M9.05978873,26.2793279 L53.5545775,26.2793279 L53.5545775,7.77956324 L9.05978873,7.77956324 L9.05978873,26.2793279 Z" id="Stroke-9" stroke="#FFFFFF" stroke-width="0.6655"></path>
                <polygon id="Fill-10" fill="#FFFFFF" points="15.2588732 57.1256515 26.6976761 57.1256515 26.6976761 54.8961515 15.2588732 54.8961515"></polygon>
                <polygon id="Stroke-11" stroke="#FFFFFF" stroke-width="0.6655" points="15.2588732 57.1256515 26.6976761 57.1256515 26.6976761 54.8961515 15.2588732 54.8961515"></polygon>
                <polygon id="Fill-12" fill="#FFFFFF" points="22.0933873 33.3039926 19.8642324 33.3039926 19.8642324 37.9101985 15.2600775 37.9101985 15.2600775 40.1383603 19.8642324 40.1383603 19.8642324 44.7445662 22.0933873 44.7445662 22.0933873 40.1383603 26.6975423 40.1383603 26.6975423 37.9101985 22.0933873 37.9101985"></polygon>
                <polygon id="Stroke-13" stroke="#FFFFFF" stroke-width="0.6655" points="22.0933873 33.3039926 19.8642324 33.3039926 19.8642324 37.9101985 15.2600775 37.9101985 15.2600775 40.1383603 19.8642324 40.1383603 19.8642324 44.7445662 22.0933873 44.7445662 22.0933873 40.1383603 26.6975423 40.1383603 26.6975423 37.9101985 22.0933873 37.9101985"></polygon>
                <polygon id="Fill-14" fill="#FFFFFF" points="44.6726127 34.1952574 41.4051479 37.4645662 38.1363451 34.1952574 36.6511338 35.6806985 39.9185986 39.0985515 36.6511338 42.3665221 38.1363451 43.8533015 41.4051479 40.5839926 44.6726127 43.8533015 46.3076831 42.3665221 43.0388803 39.0985515 46.3076831 35.6806985"></polygon>
                <polygon id="Stroke-15" stroke="#FFFFFF" stroke-width="0.6655" points="44.6726127 34.1952574 41.4051479 37.4645662 38.1363451 34.1952574 36.6511338 35.6806985 39.9185986 39.0985515 36.6511338 42.3665221 38.1363451 43.8533015 41.4051479 40.5839926 44.6726127 43.8533015 46.3076831 42.3665221 43.0388803 39.0985515 46.3076831 35.6806985"></polygon>
            </g>
        </g>
    </g>
</svg>