<svg width="111" height="110" viewBox="0 0 111 110" fill="none" xmlns="http://www.w3.org/2000/svg">
<g opacity="0.80137">
<path fill-rule="evenodd" clip-rule="evenodd" d="M71.0282 75.2847C71.7682 75.2847 72.3667 75.8849 72.3667 76.6232V81.979H75.0437V76.6232C75.0437 75.8849 75.6439 75.2847 76.384 75.2847C77.1223 75.2847 77.7225 75.8849 77.7225 76.6232V79.302V81.979H80.3995V79.302C80.3995 78.562 80.9997 77.9635 81.7381 77.9635C82.4781 77.9635 83.0766 78.562 83.0766 79.302V94.0309C83.0766 95.4683 82.6026 96.8972 81.7381 98.0465L79.061 101.617V104.737L60.3165 104.69V101.75L56.9967 95.0659C56.5414 94.1468 56.2993 93.1169 56.2993 92.0887V86.5897C56.2993 85.0841 55.9412 83.5733 55.2694 82.2263L53.7092 79.1042C53.6512 78.9916 53.6222 78.8621 53.6222 78.7342C53.6222 78.2772 53.9922 77.9072 54.5788 77.9072C58.4818 77.9089 61.6551 81.0838 61.6551 84.9852V87.2786V89.9556H64.3321V87.2786V84.9852V60.5558C64.3321 59.8175 64.9323 59.2173 65.6706 59.2173C66.4107 59.2173 67.0109 59.8175 67.0109 60.5558V76.6232V81.979H69.6896V76.6232C69.6896 75.8849 70.2881 75.2847 71.0282 75.2847ZM52.2837 64.5731C50.0687 64.5731 48.2647 62.7708 48.2647 60.5558C48.2647 58.3408 50.0687 56.5402 52.2837 56.5402C52.6008 56.5402 52.9436 56.5931 53.3562 56.7073L54.8107 57.1149L55.0392 55.6229C55.6598 51.5664 60.233 48.5057 65.6706 48.5057C69.8925 48.5057 73.7359 50.3932 75.4649 53.3158L75.9321 54.1053L76.8375 53.9553C77.1734 53.899 77.4531 53.8632 77.7225 53.8632C80.6758 53.8632 83.0766 56.264 83.0766 59.2173C83.0766 62.1723 80.6758 64.5731 77.7225 64.5731H69.6896V60.5558C69.6896 58.3408 67.8856 56.5402 65.6706 56.5402C63.4574 56.5402 61.6551 58.3408 61.6551 60.5558V64.5731H52.2837ZM77.7225 67.2518C82.1524 67.2518 85.7571 63.6489 85.7571 59.2173C85.7571 54.7874 82.1524 51.1844 77.7225 51.1844C77.569 51.1844 77.4207 51.1912 77.2775 51.2015C74.9107 47.9123 70.4655 45.8286 65.6706 45.8286C59.4981 45.8286 54.1951 49.2048 52.7066 53.8785C48.8444 53.5972 45.5876 56.7244 45.5876 60.5558C45.5876 64.2474 48.5921 67.2518 52.2837 67.2518H61.6551V78.3079C59.8596 76.4186 57.3104 75.2301 54.4492 75.2284C52.5173 75.2284 50.9435 76.8023 50.9435 78.7342C50.9435 79.2747 51.073 79.8186 51.3118 80.3012L52.8737 83.4233C53.363 84.402 53.6222 85.495 53.6222 86.588V92.0887C53.6222 93.5279 53.9598 94.9687 54.5992 96.2544L57.6378 102.377V107.36L81.7381 107.423V102.509L83.8814 99.6544C85.0904 98.043 85.7571 96.0463 85.7571 94.0309V79.302C85.7571 77.087 83.953 75.2847 81.7381 75.2847C81.2112 75.2847 80.7082 75.3921 80.2444 75.5797C79.784 73.8729 78.2357 72.6077 76.384 72.6077C75.3507 72.6077 74.418 73.0101 73.7052 73.6512C72.9925 73.0084 72.0598 72.6077 71.0282 72.6077C70.5575 72.6077 70.1091 72.7031 69.6896 72.8532V67.2518H77.7225Z" fill="white"/>
<path fill-rule="evenodd" clip-rule="evenodd" d="M36.2162 35.117C41.3811 35.117 45.5876 39.3218 45.5876 44.4901C45.5876 49.2014 42.087 53.101 37.5547 53.7557V48.2601C39.1081 47.706 40.2318 46.2327 40.2318 44.4901C40.2318 42.2751 38.4295 40.4728 36.2162 40.4728C34.0013 40.4728 32.1989 42.2751 32.1989 44.4901C32.1989 46.2327 33.3226 47.706 34.876 48.2601V53.7557C30.3438 53.101 26.8431 49.2014 26.8431 44.4901C26.8431 39.3218 31.0497 35.117 36.2162 35.117ZM34.876 44.4901C34.876 43.7501 35.4762 43.1499 36.2162 43.1499C36.9545 43.1499 37.5547 43.7501 37.5547 44.4901C37.5547 45.2284 36.9545 45.8286 36.2162 45.8286C35.4762 45.8286 34.876 45.2284 34.876 44.4901ZM38.8933 59.2173C38.8933 60.6939 37.6912 61.896 36.2162 61.896C34.7396 61.896 33.5375 60.6939 33.5375 59.2173V56.2299C34.4003 56.426 35.2937 56.5402 36.2162 56.5402C37.137 56.5402 38.0305 56.426 38.8933 56.2299V59.2173ZM30.8587 55.2682V59.2173C30.8587 62.1723 33.2629 64.5731 36.2162 64.5731C39.1678 64.5731 41.572 62.1723 41.572 59.2173V55.2682C45.5313 53.292 48.2647 49.2082 48.2647 44.4901C48.2647 37.8452 42.8594 32.4399 36.2162 32.4399C29.5713 32.4399 24.1661 37.8452 24.1661 44.4901C24.1661 49.2099 26.8994 53.292 30.8587 55.2682Z" fill="white"/>
<mask id="mask0" mask-type="alpha" maskUnits="userSpaceOnUse" x="0" y="-1" width="132" height="133">
<path fill-rule="evenodd" clip-rule="evenodd" d="M0 131.714H131.714V-0.000488281H0V131.714Z" fill="white"/>
</mask>
<g mask="url(#mask0)">
<path fill-rule="evenodd" clip-rule="evenodd" d="M34.875 29.7606H37.5538V24.4048H34.875V29.7606Z" fill="white"/>
<path fill-rule="evenodd" clip-rule="evenodd" d="M26.9847 26.343L29.3787 25.146L32.0574 30.5001L29.6617 31.6988L26.9847 26.343Z" fill="white"/>
<path fill-rule="evenodd" clip-rule="evenodd" d="M40.3725 30.5018L43.0513 25.146L45.447 26.3447L42.7682 31.6988L40.3725 30.5018Z" fill="white"/>
<path fill-rule="evenodd" clip-rule="evenodd" d="M104.501 94.0305H91.111V90.0132C91.111 86.3216 94.1137 83.3188 97.8053 83.3188C101.497 83.3188 104.501 86.3216 104.501 90.0132V94.0305ZM93.7898 76.6245C93.7898 74.4095 95.5904 72.6072 97.8053 72.6072C100.02 72.6072 101.824 74.4095 101.824 76.6245C101.824 78.8378 100.02 80.6401 97.8053 80.6401C95.5904 80.6401 93.7898 78.8378 93.7898 76.6245ZM102.119 81.7024C103.564 80.4713 104.501 78.6638 104.501 76.6245C104.501 72.9329 101.497 69.9302 97.8053 69.9302C94.1137 69.9302 91.111 72.9329 91.111 76.6245C91.111 78.6638 92.0488 80.4713 93.4931 81.7024C90.492 83.266 88.434 86.4 88.434 90.0132V96.7075H107.178V90.0132C107.178 86.4 105.12 83.266 102.119 81.7024Z" fill="white"/>
<path fill-rule="evenodd" clip-rule="evenodd" d="M101.823 43.151H104.501V27.0835H101.823V43.151ZM96.4677 43.1493H99.1447V29.7606H96.4677V43.1493ZM91.1119 43.151H93.7889V32.4393H91.1119V43.151ZM99.1447 24.4048V27.0835H93.7889V29.7606H88.4348V45.828H107.179V24.4048H99.1447Z" fill="white"/>
<path fill-rule="evenodd" clip-rule="evenodd" d="M96.4669 67.2513H99.144V61.8955H88.4341V64.5743H96.4669V67.2513Z" fill="white"/>
<path fill-rule="evenodd" clip-rule="evenodd" d="M99.1445 48.5063H96.4674V56.5392H88.4346V59.218H99.1445V48.5063Z" fill="white"/>
<path fill-rule="evenodd" clip-rule="evenodd" d="M29.5209 92.6902H37.5554V90.0132H29.5209V92.6902Z" fill="white"/>
<path fill-rule="evenodd" clip-rule="evenodd" d="M40.2325 92.6902H42.9095V90.0132H40.2325V92.6902Z" fill="white"/>
<path fill-rule="evenodd" clip-rule="evenodd" d="M29.5209 87.336H42.9112V84.6572H29.5209V87.336Z" fill="white"/>
<path fill-rule="evenodd" clip-rule="evenodd" d="M45.5878 94.0302C45.5878 94.7685 44.9876 95.3687 44.2493 95.3687H40.232V100.17C40.232 100.622 39.6045 100.881 39.2856 100.563L34.0918 95.3687H28.1818C27.4418 95.3687 26.8433 94.7685 26.8433 94.0302V83.3186C26.8433 82.5785 27.4418 81.98 28.1818 81.98H44.2493C44.9876 81.98 45.5878 82.5785 45.5878 83.3186V94.0302ZM44.2493 79.3013H28.1818C25.9669 79.3013 24.1663 81.1036 24.1663 83.3186V94.0302C24.1663 96.2434 25.9669 98.0457 28.1818 98.0457H32.9818L37.3912 102.455C37.9931 103.057 38.8252 103.403 39.6778 103.403C41.4597 103.403 42.9107 101.952 42.9107 100.17V98.0457H44.2493C46.4642 98.0457 48.2648 96.2434 48.2648 94.0302V83.3186C48.2648 81.1036 46.4642 79.3013 44.2493 79.3013Z" fill="white"/>
<path fill-rule="evenodd" clip-rule="evenodd" d="M64.3326 43.1502H67.0096V37.7944H49.6037V40.4732H64.3326V43.1502Z" fill="white"/>
<path fill-rule="evenodd" clip-rule="evenodd" d="M45.5878 71.2686H34.8762V76.6244H37.5549V73.9457H48.2648V68.5898H45.5878V71.2686Z" fill="white"/>
<path fill-rule="evenodd" clip-rule="evenodd" d="M130.008 65.8571C130.008 101.286 101.287 130.009 65.8563 130.009C30.4272 130.009 1.70599 101.286 1.70599 65.8571C1.70599 30.4263 30.4272 1.70508 65.8563 1.70508C101.287 1.70508 130.008 30.4263 130.008 65.8571Z" stroke="white" stroke-width="3.42"/>
</g>
</g>
</svg>
