<svg width="105" height="118" viewBox="0 0 105 118" fill="none" xmlns="http://www.w3.org/2000/svg">
<g opacity="0.799858">
<path fill-rule="evenodd" clip-rule="evenodd" d="M62.9777 -17.8282C65.7335 -17.8282 68.0663 -15.5021 68.0663 -12.7541C68.0663 -10.0062 65.7335 -7.68001 62.9777 -7.68001C60.2219 -7.68001 57.8891 -10.0062 57.8891 -12.7541C57.8891 -15.7139 60.2219 -17.8282 62.9777 -17.8282ZM20.3555 6.69871C29.6867 -2.81591 41.9861 -8.94719 55.1333 -10.6398C56.1917 -7.25642 59.1617 -4.50847 62.9777 -4.50847C67.4309 -4.50847 71.2487 -8.10181 71.2487 -12.7541C71.2487 -17.4064 67.6433 -20.9998 62.9777 -20.9998C58.7369 -20.9998 55.3439 -17.8282 54.9191 -13.8113C40.9241 -12.1187 27.7769 -5.56386 18.0227 4.37255L20.3555 6.69871Z" fill="white"/>
<mask id="mask0" mask-type="alpha" maskUnits="userSpaceOnUse" x="0" y="9" width="19" height="57">
<path fill-rule="evenodd" clip-rule="evenodd" d="M0 9.44727H18.3227V65.9032H0V9.44727Z" fill="white"/>
</mask>
<g mask="url(#mask0)">
<path fill-rule="evenodd" clip-rule="evenodd" d="M5.72562 14.945C6.57342 13.466 8.26902 12.407 10.1788 12.407C11.0266 12.407 11.8744 12.6188 12.724 13.0424C13.7842 13.676 14.6302 14.7332 15.0568 16.2139C15.4798 17.4829 15.2674 18.9619 14.6302 20.0209C13.147 22.3452 9.96462 23.1924 7.63362 21.7116C5.08842 20.4426 4.24062 17.2711 5.72562 14.945ZM2.75742 65.9032L5.72562 65.056C4.03002 59.5601 3.39282 54.0624 3.39282 48.3529C3.39282 40.5291 4.87602 32.707 7.84602 25.5168C8.48142 25.7285 9.32922 25.7285 9.96462 25.7285C12.9346 25.7285 15.6904 24.2496 17.1754 21.7116C18.2356 19.8073 18.6604 17.6947 18.0232 15.5803C17.3878 13.466 16.1152 11.7734 14.2072 10.5044C12.9346 9.87086 11.4514 9.44727 9.96462 9.44727C6.99822 9.44727 4.24062 10.928 2.75742 13.466C0.637017 17.0593 1.69722 21.4998 4.87602 24.0378C1.69722 31.6498 -0.000183105 39.8955 -0.000183105 48.3529C0.212217 54.0624 1.06002 60.1937 2.75742 65.9032Z" fill="white"/>
</g>
<path fill-rule="evenodd" clip-rule="evenodd" d="M5.30206 80.704C4.66486 79.435 4.45246 78.1661 4.87726 76.8971C5.30206 75.6281 6.14986 74.5709 7.21006 73.9373C8.05786 73.5155 8.90566 73.3037 9.75526 73.3037C11.6615 73.3037 13.3589 74.3609 14.2067 75.8417C15.4793 78.1661 14.6315 81.3394 12.2987 82.8184C9.96586 84.0873 6.78526 83.0302 5.30206 80.704ZM15.4793 84.0873C18.0227 81.5494 18.6599 77.5325 16.7519 74.1491C15.2669 71.6112 12.5111 69.9204 9.54106 69.9204C8.05786 69.9204 6.78526 70.344 5.51266 70.9776C3.60466 72.0348 2.11966 73.7255 1.69666 75.8417C1.06126 77.9543 1.48426 80.0686 2.54446 82.1848C4.02946 84.7209 6.78526 86.4135 9.75526 86.4135C10.8155 86.4135 11.8739 86.2017 12.9341 85.7781C21.2051 96.5617 32.6549 104.597 45.8021 108.191L46.6517 105.231C34.3523 101.848 23.3255 94.2355 15.4793 84.0873Z" fill="white"/>
<path fill-rule="evenodd" clip-rule="evenodd" d="M62.9777 114.323V116.013V114.323C61.4945 114.323 60.2219 113.689 59.3723 112.844C58.5245 111.785 57.8891 110.518 57.8891 109.249C57.8891 106.501 60.2219 104.174 62.9777 104.174C65.7335 104.174 68.0663 106.501 68.0663 109.249C68.0663 111.997 65.7335 114.323 62.9777 114.323ZM105.175 90.0076C95.8457 99.3104 83.7587 105.232 70.8221 106.922C69.9761 103.539 66.7937 100.791 62.9777 100.791C58.5245 100.791 54.7067 104.384 54.7067 108.825C54.7067 110.939 55.5563 113.054 57.0395 114.746C58.5245 116.227 60.6449 117.282 62.7653 117.282C67.0061 117.282 70.3991 114.111 70.8221 110.094C84.6065 108.403 97.3289 102.058 107.295 92.1219L105.175 90.0076Z" fill="white"/>
<path fill-rule="evenodd" clip-rule="evenodd" d="M120.866 16.0027C121.503 17.2716 121.716 18.5406 121.291 19.8078C120.866 21.0768 120.018 22.134 118.958 22.7693C116.627 24.0383 113.445 23.1911 112.172 20.865C111.537 19.596 111.324 18.3288 111.749 17.0599C112.172 15.7909 113.022 14.7337 114.08 14.0983C114.93 13.6765 115.777 13.4647 116.627 13.4647C118.323 13.4647 120.018 14.5219 120.866 16.0027ZM110.689 12.6193C109.629 13.6765 108.991 14.7337 108.568 16.2145C107.931 18.3288 108.144 20.4432 109.204 22.5575C110.689 25.0937 113.445 26.7863 116.413 26.7863C117.898 26.7863 119.17 26.3627 120.443 25.7291C122.351 24.6719 123.834 22.9793 124.259 20.865C124.894 18.7506 124.684 16.6363 123.624 14.5219C122.139 11.9858 119.383 10.2932 116.413 10.2932C115.353 10.2932 114.294 10.505 113.445 10.9268C104.751 -0.702199 92.2405 -9.15964 78.2455 -12.543L77.3977 -9.37143C90.7555 -6.19989 102.63 1.62395 110.689 12.6193Z" fill="white"/>
<path fill-rule="evenodd" clip-rule="evenodd" d="M76.9734 21.7116C82.062 21.7116 86.3028 25.9403 86.3028 31.0144C86.3028 36.0903 82.062 40.319 76.9734 40.319C76.3362 40.319 75.7008 40.319 74.8512 40.1072C76.1238 37.9929 76.9734 35.4549 76.9734 32.9188C76.9734 28.9 75.2778 25.5167 72.7326 22.9806C74.2176 22.1334 75.4884 21.7116 76.9734 21.7116ZM62.9784 43.7006C57.0402 43.7006 51.9516 38.8382 51.9516 32.7052C51.9516 26.7857 56.8296 21.7116 62.9784 21.7116C68.9148 21.7116 74.0052 26.5739 74.0052 32.7052C74.0052 38.8382 68.9148 43.7006 62.9784 43.7006ZM39.654 31.0144C39.654 25.9403 43.893 21.7116 48.9816 21.7116C50.4666 21.7116 51.9516 22.1334 53.2242 22.7688C50.6808 25.3049 48.9816 28.9 48.9816 32.7052C48.9816 35.4549 49.8312 37.7811 51.1038 39.8954C50.4666 40.1072 49.8312 40.1072 48.9816 40.1072C43.6824 40.319 39.654 36.0903 39.654 31.0144ZM62.9784 18.7518C60.435 18.7518 57.888 19.3854 55.7694 20.6544C53.6472 19.3854 51.3144 18.54 48.9816 18.54C42.1974 18.54 36.4716 24.0377 36.4716 31.0144C36.4716 37.9929 41.985 43.4906 48.9816 43.4906C50.4666 43.4906 51.7392 43.2788 53.01 42.8552C55.557 45.3931 59.1606 46.8739 62.9784 46.8739C66.7944 46.8739 70.3998 45.3931 72.945 42.8552C74.2176 43.2788 75.7008 43.4906 76.9734 43.4906C83.7594 43.4906 89.4834 37.9929 89.4834 31.0144C89.4834 24.0377 83.9718 18.54 76.9734 18.54C74.4282 18.54 72.0954 19.3854 70.1874 20.6544C68.067 19.3854 65.5236 18.7518 62.9784 18.7518Z" fill="white"/>
<path fill-rule="evenodd" clip-rule="evenodd" d="M92.4527 67.1716C92.2403 65.269 92.0297 63.5782 91.8155 61.8857V61.6739C91.6031 59.7713 90.9677 57.657 89.6969 55.7544V55.5426C88.6349 53.8518 87.1517 52.3711 85.2419 51.3139L87.5747 46.8734L93.7253 49.1995C94.1483 49.4095 94.5731 49.6213 94.9961 49.8331C96.0581 50.4667 96.9059 51.3139 97.7537 52.3711V52.5829C98.6015 54.0618 99.0245 55.3308 99.2387 56.5998V57.0216C99.6617 59.9831 100.085 63.3647 100.297 67.3834H92.4527V67.1716ZM36.0479 74.5718C36.4709 66.9598 37.3205 63.1546 37.3205 63.1546V62.7311C37.3205 61.0385 37.9577 59.1359 39.0161 57.2334C40.0763 55.5426 41.7737 54.0618 43.6817 53.4282L51.1031 50.6803L59.5847 66.5362H66.1601L74.6399 50.6803L82.0631 53.2164C82.6985 53.4282 83.1215 53.6382 83.5463 53.85C84.8189 54.6972 85.8791 55.5426 86.7269 57.0216V57.2334C87.5747 58.9259 88.2119 60.4049 88.4243 61.8857V62.3093C88.8473 65.6908 89.2703 69.9195 89.6969 74.5718H36.0479ZM25.6583 67.1716C25.8707 63.1546 26.2937 59.7713 26.7167 56.8116V56.388C26.9309 55.119 27.3539 53.85 28.2035 52.1593C28.8389 51.1021 29.6867 50.2567 30.9593 49.4095C31.3823 49.1995 31.8071 48.9877 32.2319 48.7759L38.5931 46.4498L40.9241 50.8903C39.0161 51.9475 37.3205 53.4282 36.2603 55.3308C34.9877 57.657 34.1399 59.9831 34.1399 62.3093C34.1399 62.7311 33.7151 64.4236 33.5027 66.9598H25.6583V67.1716ZM103.479 68.6523C103.267 64 102.842 59.7713 102.207 56.388V56.1762C101.994 54.4854 101.357 52.7929 100.511 50.8903V50.6803C99.6617 49.1995 98.1785 47.7188 96.6917 46.8734C96.2687 46.6616 95.6333 46.238 94.9961 46.028L85.8791 42.8564L82.2737 49.8331L73.3673 46.6616L64.4627 63.1546H61.4945L52.5881 46.6616L43.6817 49.8331L40.0763 42.8564L31.1699 46.028C30.5363 46.238 29.8991 46.4498 29.4743 46.8734C27.7769 47.7188 26.5061 49.1995 25.6583 50.6803L25.4441 51.1021C24.3857 52.7929 23.9609 54.6972 23.7485 56.388V56.5998C23.3255 59.9831 22.9007 64.2118 22.4777 68.8623V70.5549H33.2921C33.0797 72.2457 33.0797 74.15 32.8673 76.2626V77.9552H93.5129V76.2626C93.3005 74.15 93.3005 72.2457 93.0899 70.5549H103.902L103.479 68.6523Z" fill="white"/>
</g>
</svg>
