<?xml version="1.0" encoding="UTF-8"?>
<svg width="70px" height="98px" viewBox="0 0 70 98" version="1.1" xmlns="http://www.w3.org/2000/svg" xmlns:xlink="http://www.w3.org/1999/xlink">
    <!-- Generator: Sketch 55.2 (78181) - https://sketchapp.com -->
    <title>Group 10</title>
    <desc>Created with Sketch.</desc>
    <defs>
        <polygon id="path-1" points="0.495886732 0.5503 18.0236 0.5503 18.0236 30 0.495886732 30"></polygon>
    </defs>
    <g id="Page-1" stroke="none" stroke-width="1" fill="none" fill-rule="evenodd">
        <g id="Consultant-Home" transform="translate(-477.000000, -3104.000000)">
            <g id="Group-10" transform="translate(477.000000, 3104.000000)">
                <g id="Group-3" transform="translate(5.000000, 67.278800)">
                    <mask id="mask-2" fill="white">
                        <use xlink:href="#path-1"></use>
                    </mask>
                    <g id="Clip-2"></g>
                    <path d="M9.7006,6.0493 L3.6996,22.7263 C3.0866,24.3633 3.9046,26.1883 5.5226,26.7963 C5.8456,26.9243 6.2556,27.0003 6.5966,27.0003 C7.8946,27.0003 9.1296,26.1593 9.5976,24.9563 L14.5666,10.9843 L9.7006,6.0493 Z M6.5966,30.0003 C5.8726,30.0003 5.0866,29.8513 4.4386,29.5933 C1.3046,28.4173 -0.2994,24.8663 0.8876,21.6843 L8.4916,0.5503 L18.0236,10.2163 L12.4086,26.0033 C11.4726,28.4103 9.1426,30.0003 6.5966,30.0003 L6.5966,30.0003 Z" id="Fill-1" fill="#FFFFFF" mask="url(#mask-2)"></path>
                </g>
                <path d="M68.3032,1.3843 C67.4492,0.5043 66.2572,0.0003 65.0332,0.0003 L15.4882,0.0003 C12.9872,0.0003 10.8742,2.0983 10.8742,4.5823 L10.8742,29.8383 C11.8922,29.2473 12.7602,28.7683 13.5152,28.3813 L13.5152,4.6823 C13.5152,3.5653 14.4642,2.6203 15.5882,2.6203 L65.1352,2.6203 C66.2592,2.6203 67.2082,3.5653 67.2082,4.6823 L67.2082,89.5463 C67.2082,90.6643 66.2592,91.6093 65.1352,91.6093 L48.3722,91.6093 C48.2282,92.4703 47.9622,93.2983 47.5642,94.1293 L64.9322,94.1293 C67.4332,94.1293 69.5452,92.0303 69.5452,89.5463 L69.5452,4.5823 C69.5862,3.3833 69.1462,2.2503 68.3032,1.3843" id="Fill-4" fill="#FFFFFF"></path>
                <path d="M41.4223,92.5801 C41.0193,93.4061 40.3363,94.0141 39.4323,94.3181 C39.0773,94.4601 38.7383,94.5291 38.3963,94.5291 C36.9683,94.5291 35.6713,93.6121 35.1783,92.2751 L29.5783,75.8751 L29.5133,75.7181 C29.3223,75.3401 29.1103,75.1261 28.9803,74.9951 L15.9803,61.9951 C14.4773,60.4931 13.8223,58.2061 14.3153,56.1571 L17.9133,40.3951 L15.3013,42.1391 C15.1963,42.2091 15.0903,42.2591 14.9853,42.3111 C14.7903,42.4091 14.5983,42.5091 14.4343,42.6191 C13.3983,43.2651 12.5623,44.1531 12.0883,45.0981 L7.7773,53.3201 C7.3133,54.2501 6.3603,54.8291 5.2953,54.8291 C4.8703,54.8291 4.4703,54.7191 3.9983,54.4831 C2.6093,53.7191 2.0993,52.0661 2.8033,50.6591 L7.1133,42.4381 C8.1033,40.4611 9.6253,38.8451 11.5353,37.7521 C21.0823,32.0631 22.2073,32.1501 23.1653,32.2221 L29.9333,32.9271 C31.2213,32.9921 32.3343,33.0471 39.2263,43.0301 C39.5943,43.6931 40.2403,44.1221 41.1513,44.3041 C41.8483,44.4441 42.7333,44.5301 43.7573,44.6291 C45.2003,44.7691 47.0583,44.9501 48.6243,45.3621 L48.6243,50.8321 C46.7473,50.9121 44.3893,50.3941 42.6323,50.0001 C41.7633,49.8051 41.0123,49.6361 40.3793,49.5421 C38.0323,49.1951 35.9373,47.8941 34.5713,45.8971 C34.3553,45.6261 34.1703,45.3541 33.9993,45.1021 C33.8603,44.8981 33.7283,44.7051 33.5963,44.5291 L32.1393,42.5861 L25.8723,62.3311 L33.7123,70.0621 C34.7063,71.0571 35.4863,72.3041 35.9103,73.5741 L41.6093,89.9741 C41.8943,90.8261 41.8273,91.7511 41.4223,92.5801 L41.4223,92.5801 Z M38.2783,72.7751 C37.7343,71.1471 36.7413,69.5571 35.4743,68.2881 L28.7183,61.6271 L33.0363,48.0241 C34.7443,50.1651 37.2453,51.6051 40.0123,52.0151 C40.5543,52.0961 41.2643,52.2551 42.0853,52.4391 C44.0443,52.8791 46.4503,53.4181 48.6243,53.3431 L48.6243,54.3211 C48.6243,57.3141 51.3163,59.7501 54.6243,59.7501 L54.6243,55.7501 C53.5403,55.7501 52.6243,55.0961 52.6243,54.3211 L52.6243,51.9941 C53.4803,51.2561 54.0333,50.2531 54.2293,48.9841 C54.4643,47.5691 54.1883,46.3351 53.4063,45.3171 C53.1803,45.0221 52.9163,44.7581 52.6243,44.5181 L52.6243,43.1791 C52.6243,42.4041 53.5403,41.7501 54.6243,41.7501 L54.6243,37.7501 C51.4583,37.7501 48.8633,39.9821 48.6463,42.7971 C47.0793,42.4421 45.4223,42.2791 43.9993,42.1411 C43.0423,42.0481 42.2153,41.9681 41.6413,41.8531 C41.4833,41.8211 41.4093,41.7891 41.4013,41.7971 L41.3243,41.6691 C34.3533,31.5651 32.6973,30.5621 30.1253,30.4351 L23.3873,29.7321 C21.7603,29.6041 20.4833,29.5101 10.2763,35.5931 C7.9543,36.9191 6.0883,38.8991 4.8883,41.2981 L0.5773,49.5191 C-0.7277,52.1301 0.2453,55.2731 2.8363,56.6961 C3.6973,57.1281 4.4793,57.3291 5.2953,57.3291 C7.3143,57.3291 9.1223,56.2211 10.0033,54.4591 L13.7843,47.2471 L11.8803,55.5871 C11.1823,58.4941 12.0753,61.6271 14.2123,63.7631 L27.2113,76.7621 L32.8223,93.1111 C33.6863,95.4551 35.9263,97.0291 38.3963,97.0291 C39.0533,97.0291 39.7133,96.8981 40.2913,96.6641 C41.7693,96.1721 42.9693,95.1111 43.6693,93.6771 C44.3623,92.2561 44.4743,90.6601 43.9763,89.1681 L38.2783,72.7751 Z" id="Fill-6" fill="#FFFFFF"></path>
                <path d="M22.6752,19.3457 C23.0562,15.8547 26.2062,13.3247 29.6962,13.7047 C31.3862,13.8887 32.9052,14.7197 33.9702,16.0457 C35.0352,17.3717 35.5212,19.0327 35.3372,20.7227 C34.9562,24.2137 31.8182,26.7437 28.3172,26.3647 C26.6262,26.1807 25.1082,25.3487 24.0422,24.0237 C22.9772,22.6977 22.4912,21.0367 22.6752,19.3457 M28.0472,28.8497 C28.3712,28.8857 28.6932,28.9027 29.0122,28.9027 C33.4752,28.9027 37.3272,25.5307 37.8212,20.9937 C38.0782,18.6387 37.4032,16.3257 35.9182,14.4797 C34.4352,12.6337 32.3212,11.4757 29.9662,11.2197 C25.0982,10.6937 20.7202,14.2147 20.1912,19.0747 C19.9342,21.4297 20.6102,23.7427 22.0942,25.5897 C23.5772,27.4357 25.6922,28.5937 28.0472,28.8497" id="Fill-8" fill="#FFFFFF"></path>
            </g>
        </g>
    </g>
</svg>