<svg width="116" height="119" viewBox="0 0 116 119" fill="none" xmlns="http://www.w3.org/2000/svg">
<g opacity="0.8">
<path fill-rule="evenodd" clip-rule="evenodd" d="M111.079 31.9883C111.079 34.6723 108.96 36.843 106.253 36.93L106.173 36.9336L106.097 36.9194C106.047 36.9265 106.004 36.93 105.967 36.93C103.249 36.843 101.137 34.6723 101.137 31.9883V29.6134H111.079V31.9883ZM104.823 66.3742H32.3957V39.3902L32.8753 39.2748C34.4473 38.8946 35.8311 38.026 36.8773 36.7631L37.3569 36.184L37.8401 36.7631C39.2878 38.5056 41.3945 39.5039 43.6167 39.5039C45.8104 39.5039 47.9082 38.5038 49.3772 36.7613L49.8569 36.1893L50.3347 36.7631C51.7842 38.5056 53.8838 39.5039 56.0935 39.5039C58.3015 39.5039 60.4082 38.5038 61.8736 36.7613L62.3532 36.1875L62.8311 36.7631C64.2805 38.5056 66.3872 39.5039 68.6094 39.5039C70.8156 39.5039 72.9223 38.5038 74.3895 36.7613L74.8692 36.1893L75.347 36.7631C76.7965 38.5056 78.9032 39.5039 81.1253 39.5039C83.3315 39.5039 85.4382 38.5038 86.9055 36.7613L87.3851 36.1893L87.8647 36.7631C89.3124 38.5056 91.4191 39.5039 93.6413 39.5039C95.8474 39.5039 97.9542 38.5038 99.4214 36.7613L99.9081 36.1822L100.384 36.7684C101.391 38.0118 102.798 38.9017 104.344 39.2748L104.823 39.3902V66.3742ZM104.823 72.3693C104.823 73.6287 104.331 74.8117 103.439 75.7017C102.526 76.5952 101.338 77.0836 100.089 77.0836H37.1296C35.8701 77.0836 34.6871 76.5934 33.7972 75.7017C32.9055 74.8117 32.417 73.6269 32.417 72.3693V68.9304H104.823V72.3693ZM59.3495 84.8053H77.8694V79.638H59.3495V84.8053ZM85.2411 87.3614L88.1098 92.0917H49.1303L51.9742 87.3614H85.2411ZM31.1007 36.93C28.3652 36.93 26.1395 34.7132 26.1395 31.9883V29.6134H36.0797V31.9883C36.0797 34.7132 33.8469 36.93 31.1007 36.93ZM48.5761 29.6134V31.9883C48.5761 34.7132 46.3593 36.93 43.6344 36.93C40.8882 36.93 38.6554 34.7132 38.6554 31.9883V29.6134H48.5761ZM61.0743 31.9883C61.0743 34.7132 58.8397 36.93 56.0935 36.93C53.3473 36.93 51.1127 34.7132 51.1127 31.9883V29.6134H61.0547L61.0743 31.9883ZM73.5707 31.9883C73.5707 34.7132 71.3361 36.93 68.5899 36.93C65.8437 36.93 63.6091 34.7132 63.6091 31.9883V29.6134H73.5511L73.5707 31.9883ZM86.067 31.9883C86.067 34.7132 83.8324 36.93 81.0863 36.93C78.3401 36.93 76.1072 34.7132 76.1072 31.9883V29.6134H86.0475L86.067 31.9883ZM98.583 31.9883C98.583 34.7132 96.3484 36.93 93.6022 36.93C90.856 36.93 88.6214 34.7132 88.6214 31.9883V29.6134H98.5634L98.583 31.9883ZM31.7988 20.5027L105.4 20.4654L109.93 27.059H27.287L31.7988 20.5027ZM32.417 13.3104C32.417 10.145 34.9997 7.56753 38.1758 7.56753H99.043C102.208 7.56753 104.782 10.145 104.782 13.3104V17.8897H32.417V13.3104ZM114.058 27.5209V27.5191L113.472 27.7394L113.413 27.615L107.34 18.753V13.3104C107.34 8.73634 103.617 5.01318 99.043 5.01318H38.1758C33.6018 5.01318 29.8804 8.73634 29.8804 13.3104V18.7921L23.8161 27.6061C23.809 27.6204 23.7876 27.6648 23.7681 27.7127L23.6828 27.8868C23.626 28.0449 23.6029 28.1746 23.6029 28.3184V31.9883C23.6029 35.4468 25.9796 38.4434 29.3848 39.2748L29.8591 39.392V72.3515C29.8591 74.2931 30.6194 76.1227 31.996 77.5011C32.0333 77.5366 32.0848 77.5739 32.1363 77.6112C32.4507 77.9008 32.7598 78.1796 33.1062 78.4159C33.1542 78.4479 33.211 78.4745 33.2696 78.5047L33.4419 78.5971C33.7172 78.7587 33.9837 78.9168 34.2626 79.05H34.7475L34.7599 79.2507C35.5344 79.5207 36.3355 79.6575 37.1491 79.6575H56.8129V84.8053H51.2619C50.809 84.8053 50.388 85.0398 50.1624 85.4163L45.766 92.7028C45.5262 93.0954 45.5244 93.5767 45.7589 93.9942C45.9898 94.3938 46.4179 94.6461 46.8691 94.6461H90.3693C90.8365 94.6461 91.2503 94.4027 91.4813 93.9942C91.7069 93.6052 91.6997 93.0954 91.4653 92.6939L87.076 85.4181C86.8486 85.0398 86.4276 84.8053 85.9747 84.8053H80.4237V79.638H100.089C104.097 79.638 107.358 76.3696 107.358 72.3515V39.3902L107.838 39.2748C111.239 38.4612 113.616 35.4646 113.616 31.9883L113.596 28.2598C113.609 28.1177 113.588 28.0058 113.547 27.901L113.522 27.8264L113.602 27.8069L114.058 27.5209Z" fill="white"/>
<path d="M106.253 36.93L106.244 36.6551L106.241 36.6553L106.253 36.93ZM106.173 36.9336L106.123 37.2039L106.154 37.2097L106.185 37.2083L106.173 36.9336ZM106.097 36.9194L106.147 36.649L106.103 36.6407L106.058 36.6471L106.097 36.9194ZM105.967 36.93L105.958 37.205H105.967V36.93ZM101.137 29.6134V29.3384H100.862V29.6134H101.137ZM111.079 29.6134H111.354V29.3384H111.079V29.6134ZM104.823 66.3742V66.6492H105.098V66.3742H104.823ZM32.3957 66.3742H32.1207V66.6492H32.3957V66.3742ZM32.3957 39.3902L32.3313 39.1229L32.1207 39.1736V39.3902H32.3957ZM32.8753 39.2748L32.9396 39.5421L32.9399 39.5421L32.8753 39.2748ZM36.8773 36.7631L37.0891 36.9385L37.0891 36.9385L36.8773 36.7631ZM37.3569 36.184L37.5681 36.0078L37.3561 35.7538L37.1451 36.0086L37.3569 36.184ZM37.8401 36.7631L38.0516 36.5873L38.0512 36.5869L37.8401 36.7631ZM49.3772 36.7613L49.5875 36.9385L49.588 36.938L49.3772 36.7613ZM49.8569 36.1893L50.0682 36.0133L49.8576 35.7604L49.6461 36.0126L49.8569 36.1893ZM50.3347 36.7631L50.5461 36.5872L50.546 36.5871L50.3347 36.7631ZM61.8736 36.7613L62.0841 36.9383L62.0846 36.9376L61.8736 36.7613ZM62.3532 36.1875L62.5648 36.0119L62.354 35.7579L62.1422 36.0112L62.3532 36.1875ZM62.8311 36.7631L62.6195 36.9387L62.6196 36.9389L62.8311 36.7631ZM74.3895 36.7613L74.5999 36.9384L74.6003 36.938L74.3895 36.7613ZM74.8692 36.1893L75.0805 36.0133L74.8699 35.7604L74.6584 36.0126L74.8692 36.1893ZM75.347 36.7631L75.5584 36.5872L75.5583 36.5871L75.347 36.7631ZM86.9055 36.7613L87.1158 36.9384L87.1162 36.938L86.9055 36.7613ZM87.3851 36.1893L87.5961 36.0129L87.3854 35.7609L87.1744 36.0126L87.3851 36.1893ZM87.8647 36.7631L88.0762 36.5873L88.0757 36.5867L87.8647 36.7631ZM99.4214 36.7613L99.6318 36.9384L99.6319 36.9382L99.4214 36.7613ZM99.9081 36.1822L100.122 36.0088L99.9117 35.7505L99.6976 36.0053L99.9081 36.1822ZM100.384 36.7684L100.598 36.5953L100.598 36.595L100.384 36.7684ZM104.344 39.2748L104.279 39.5421L104.279 39.5421L104.344 39.2748ZM104.823 39.3902H105.098V39.1736L104.888 39.1229L104.823 39.3902ZM103.439 75.7017L103.632 75.8982L103.634 75.8963L103.439 75.7017ZM33.7972 75.7017L33.9918 75.5074L33.9914 75.507L33.7972 75.7017ZM32.417 68.9304V68.6554H32.142V68.9304H32.417ZM104.823 68.9304H105.098V68.6554H104.823V68.9304ZM59.3495 84.8053H59.0745V85.0803H59.3495V84.8053ZM77.8694 84.8053V85.0803H78.1444V84.8053H77.8694ZM77.8694 79.638H78.1444V79.363H77.8694V79.638ZM59.3495 79.638V79.363H59.0745V79.638H59.3495ZM85.2411 87.3614L85.4762 87.2188L85.3959 87.0864H85.2411V87.3614ZM88.1098 92.0917V92.3667H88.5982L88.3449 91.9491L88.1098 92.0917ZM49.1303 92.0917L48.8947 91.95L48.6441 92.3667H49.1303V92.0917ZM51.9742 87.3614V87.0864H51.8187L51.7385 87.2197L51.9742 87.3614ZM26.1395 29.6134V29.3384H25.8645V29.6134H26.1395ZM36.0797 29.6134H36.3547V29.3384H36.0797V29.6134ZM48.5761 29.6134H48.8511V29.3384H48.5761V29.6134ZM38.6554 29.6134V29.3384H38.3804V29.6134H38.6554ZM61.0743 31.9883H61.3493L61.3493 31.9861L61.0743 31.9883ZM51.1127 29.6134V29.3384H50.8377V29.6134H51.1127ZM61.0547 29.6134L61.3297 29.6111L61.3275 29.3384H61.0547V29.6134ZM73.5707 31.9883H73.8457L73.8457 31.9861L73.5707 31.9883ZM63.6091 29.6134V29.3384H63.3341V29.6134H63.6091ZM73.5511 29.6134L73.8261 29.6111L73.8239 29.3384H73.5511V29.6134ZM86.067 31.9883H86.3421L86.342 31.9861L86.067 31.9883ZM76.1072 29.6134V29.3384H75.8322V29.6134H76.1072ZM86.0475 29.6134L86.3225 29.6111L86.3203 29.3384H86.0475V29.6134ZM98.583 31.9883H98.858L98.858 31.9861L98.583 31.9883ZM88.6214 29.6134V29.3384H88.3464V29.6134H88.6214ZM98.5634 29.6134L98.8384 29.6111L98.8362 29.3384H98.5634V29.6134ZM31.7988 20.5027L31.7987 20.2277L31.6542 20.2277L31.5723 20.3468L31.7988 20.5027ZM105.4 20.4654L105.627 20.3096L105.545 20.1903L105.4 20.1904L105.4 20.4654ZM109.93 27.059V27.334H110.453L110.157 26.9033L109.93 27.059ZM27.287 27.059L27.0604 26.9031L26.7639 27.334H27.287V27.059ZM104.782 17.8897V18.1647H105.057V17.8897H104.782ZM32.417 17.8897H32.142V18.1647H32.417V17.8897ZM114.058 27.5209L114.204 27.7539L114.333 27.6731V27.5209H114.058ZM114.058 27.5191H114.333V27.122L113.962 27.2617L114.058 27.5191ZM113.472 27.7394L113.223 27.8566L113.331 28.086L113.569 27.9968L113.472 27.7394ZM113.413 27.615L113.662 27.4978L113.653 27.4778L113.64 27.4596L113.413 27.615ZM107.34 18.753H107.065V18.8382L107.113 18.9084L107.34 18.753ZM29.8804 18.7921L30.107 18.9479L30.1554 18.8775V18.7921H29.8804ZM23.8161 27.6061L23.5895 27.4503L23.5787 27.466L23.5701 27.4832L23.8161 27.6061ZM23.7681 27.7127L24.0151 27.8337L24.0192 27.8252L24.0228 27.8165L23.7681 27.7127ZM23.6828 27.8868L23.4359 27.7658L23.4292 27.7795L23.4241 27.7938L23.6828 27.8868ZM29.3848 39.2748L29.4508 39.0078L29.45 39.0076L29.3848 39.2748ZM29.8591 39.392H30.1341V39.1767L29.9251 39.125L29.8591 39.392ZM31.996 77.5011L31.8014 77.6955L31.8063 77.7002L31.996 77.5011ZM32.1363 77.6112L32.3226 77.4089L32.3107 77.398L32.2976 77.3885L32.1363 77.6112ZM33.1062 78.4159L32.9512 78.6431L32.9537 78.6447L33.1062 78.4159ZM33.2696 78.5047L33.3996 78.2623L33.3956 78.2602L33.2696 78.5047ZM33.4419 78.5971L33.5813 78.3597L33.5718 78.3547L33.4419 78.5971ZM34.2626 79.05L34.144 79.2982L34.2003 79.325H34.2626V79.05ZM34.7475 79.05L35.022 79.033L35.006 78.775H34.7475V79.05ZM34.7599 79.2507L34.4855 79.2678L34.4968 79.4502L34.6694 79.5104L34.7599 79.2507ZM56.8129 79.6575H57.0879V79.3825H56.8129V79.6575ZM56.8129 84.8053V85.0803H57.0879V84.8053H56.8129ZM50.1624 85.4163L50.3978 85.5584L50.3983 85.5577L50.1624 85.4163ZM45.766 92.7028L46.0007 92.8461L46.0015 92.8449L45.766 92.7028ZM45.7589 93.9942L45.5191 94.1289L45.5208 94.1317L45.7589 93.9942ZM91.4813 93.9942L91.2434 93.8562L91.2419 93.8589L91.4813 93.9942ZM91.4653 92.6939L91.7028 92.5552L91.7007 92.5519L91.4653 92.6939ZM87.076 85.4181L86.8403 85.5598L86.8405 85.5602L87.076 85.4181ZM80.4237 84.8053H80.1487V85.0803H80.4237V84.8053ZM80.4237 79.638V79.363H80.1487V79.638H80.4237ZM107.358 39.3902L107.294 39.1229L107.083 39.1736V39.3902H107.358ZM107.838 39.2748L107.774 39.0073L107.773 39.0074L107.838 39.2748ZM113.616 31.9883H113.891L113.891 31.9869L113.616 31.9883ZM113.596 28.2598L113.322 28.2359L113.321 28.2485L113.321 28.2613L113.596 28.2598ZM113.547 27.901L113.285 27.9881L113.29 28.0009L113.547 27.901ZM113.522 27.8264L113.456 27.5593L113.167 27.6302L113.261 27.9134L113.522 27.8264ZM113.602 27.8069L113.667 28.074L113.71 28.0635L113.748 28.0399L113.602 27.8069ZM110.804 31.9883C110.804 34.5218 108.805 36.5728 106.244 36.6552L106.262 37.2049C109.115 37.1131 111.354 34.8229 111.354 31.9883H110.804ZM106.241 36.6553L106.161 36.6588L106.185 37.2083L106.265 37.2048L106.241 36.6553ZM106.223 36.6632L106.147 36.649L106.046 37.1897L106.123 37.2039L106.223 36.6632ZM106.058 36.6471C106.017 36.653 105.988 36.655 105.967 36.655V37.205C106.021 37.205 106.078 37.1999 106.136 37.1916L106.058 36.6471ZM105.976 36.6552C103.405 36.5728 101.412 34.5219 101.412 31.9883H100.862C100.862 34.8228 103.094 37.1132 105.958 37.2049L105.976 36.6552ZM101.412 31.9883V29.6134H100.862V31.9883H101.412ZM101.137 29.8884H111.079V29.3384H101.137V29.8884ZM110.804 29.6134V31.9883H111.354V29.6134H110.804ZM104.823 66.0992H32.3957V66.6492H104.823V66.0992ZM32.6707 66.3742V39.3902H32.1207V66.3742H32.6707ZM32.46 39.6576L32.9396 39.5421L32.8109 39.0074L32.3313 39.1229L32.46 39.6576ZM32.9399 39.5421C34.5705 39.1478 36.0056 38.2464 37.0891 36.9385L36.6655 36.5876C35.6566 37.8056 34.3241 38.6415 32.8106 39.0075L32.9399 39.5421ZM37.0891 36.9385L37.5687 36.3594L37.1451 36.0086L36.6655 36.5876L37.0891 36.9385ZM37.1458 36.3602L37.6289 36.9392L38.0512 36.5869L37.5681 36.0078L37.1458 36.3602ZM37.6286 36.9388C39.1274 38.743 41.3111 39.7789 43.6167 39.7789V39.2289C41.4779 39.2289 39.4481 38.2683 38.0516 36.5873L37.6286 36.9388ZM43.6167 39.7789C45.8952 39.7789 48.0687 38.7402 49.5875 36.9385L49.167 36.584C47.7478 38.2675 45.7256 39.2289 43.6167 39.2289V39.7789ZM49.588 36.938L50.0676 36.366L49.6461 36.0126L49.1665 36.5846L49.588 36.938ZM49.6455 36.3653L50.1234 36.939L50.546 36.5871L50.0682 36.0133L49.6455 36.3653ZM50.1233 36.9389C51.6235 38.7425 53.7998 39.7789 56.0935 39.7789V39.2289C53.9677 39.2289 51.9448 38.2687 50.5461 36.5872L50.1233 36.9389ZM56.0935 39.7789C58.3856 39.7789 60.5683 38.7407 62.0841 36.9383L61.6632 36.5843C60.248 38.267 58.2173 39.2289 56.0935 39.2289V39.7789ZM62.0846 36.9376L62.5642 36.3639L62.1422 36.0112L61.6626 36.5849L62.0846 36.9376ZM62.1417 36.3632L62.6195 36.9387L63.0426 36.5874L62.5648 36.0119L62.1417 36.3632ZM62.6196 36.9389C64.1202 38.7429 66.3038 39.7789 68.6094 39.7789V39.2289C66.4707 39.2289 64.4408 38.2683 63.0425 36.5872L62.6196 36.9389ZM68.6094 39.7789C70.8998 39.7789 73.0824 38.7407 74.5999 36.9384L74.1792 36.5842C72.7622 38.267 70.7314 39.2289 68.6094 39.2289V39.7789ZM74.6003 36.938L75.0799 36.366L74.6584 36.0126L74.1788 36.5846L74.6003 36.938ZM74.6578 36.3653L75.1357 36.939L75.5583 36.5871L75.0805 36.0133L74.6578 36.3653ZM75.1356 36.9389C76.6362 38.7429 78.8197 39.7789 81.1253 39.7789V39.2289C78.9866 39.2289 76.9568 38.2683 75.5584 36.5872L75.1356 36.9389ZM81.1253 39.7789C83.4157 39.7789 85.5983 38.7407 87.1158 36.9384L86.6951 36.5842C85.2781 38.267 83.2474 39.2289 81.1253 39.2289V39.7789ZM87.1162 36.938L87.5958 36.366L87.1744 36.0126L86.6947 36.5846L87.1162 36.938ZM87.1741 36.3657L87.6537 36.9394L88.0757 36.5867L87.5961 36.0129L87.1741 36.3657ZM87.6532 36.9388C89.152 38.743 91.3357 39.7789 93.6413 39.7789V39.2289C91.5025 39.2289 89.4727 38.2683 88.0762 36.5873L87.6532 36.9388ZM93.6413 39.7789C95.9316 39.7789 98.1143 38.7407 99.6318 36.9384L99.211 36.5842C97.7941 38.267 95.7633 39.2289 93.6413 39.2289V39.7789ZM99.6319 36.9382L100.119 36.3591L99.6976 36.0053L99.2109 36.5843L99.6319 36.9382ZM99.6946 36.3556L100.171 36.9417L100.598 36.595L100.122 36.0088L99.6946 36.3556ZM100.17 36.9415C101.215 38.2316 102.675 39.1548 104.279 39.5421L104.408 39.0074C102.922 38.6487 101.567 37.792 100.598 36.5953L100.17 36.9415ZM104.279 39.5421L104.759 39.6576L104.888 39.1229L104.408 39.0074L104.279 39.5421ZM104.548 39.3902V66.3742H105.098V39.3902H104.548ZM104.548 72.3693C104.548 73.5555 104.085 74.6685 103.245 75.507L103.634 75.8963C104.577 74.9549 105.098 73.702 105.098 72.3693H104.548ZM103.247 75.5051C102.384 76.3493 101.265 76.8086 100.089 76.8086V77.3586C101.411 77.3586 102.668 76.841 103.632 75.8982L103.247 75.5051ZM100.089 76.8086H37.1296V77.3586H100.089V76.8086ZM37.1296 76.8086C35.9431 76.8086 34.8301 76.3474 33.9918 75.5074L33.6025 75.8959C34.5441 76.8394 35.7972 77.3586 37.1296 77.3586V76.8086ZM33.9914 75.507C33.1517 74.6689 32.692 73.5543 32.692 72.3693H32.142C32.142 73.6996 32.6593 74.9545 33.6029 75.8963L33.9914 75.507ZM32.692 72.3693V68.9304H32.142V72.3693H32.692ZM32.417 69.2054H104.823V68.6554H32.417V69.2054ZM104.548 68.9304V72.3693H105.098V68.9304H104.548ZM59.3495 85.0803H77.8694V84.5303H59.3495V85.0803ZM78.1444 84.8053V79.638H77.5944V84.8053H78.1444ZM77.8694 79.363H59.3495V79.913H77.8694V79.363ZM59.0745 79.638V84.8053H59.6245V79.638H59.0745ZM85.0059 87.504L87.8747 92.2343L88.3449 91.9491L85.4762 87.2188L85.0059 87.504ZM88.1098 91.8167H49.1303V92.3667H88.1098V91.8167ZM49.366 92.2334L52.2099 87.5031L51.7385 87.2197L48.8947 91.95L49.366 92.2334ZM51.9742 87.6364H85.2411V87.0864H51.9742V87.6364ZM31.1007 36.655C28.5161 36.655 26.4145 34.5603 26.4145 31.9883H25.8645C25.8645 34.8661 28.2144 37.205 31.1007 37.205V36.655ZM26.4145 31.9883V29.6134H25.8645V31.9883H26.4145ZM26.1395 29.8884H36.0797V29.3384H26.1395V29.8884ZM35.8047 29.6134V31.9883H36.3547V29.6134H35.8047ZM35.8047 31.9883C35.8047 34.5594 33.697 36.655 31.1007 36.655V37.205C33.9969 37.205 36.3547 34.867 36.3547 31.9883H35.8047ZM48.3011 29.6134V31.9883H48.8511V29.6134H48.3011ZM48.3011 31.9883C48.3011 34.5613 46.2074 36.655 43.6344 36.655V37.205C46.5112 37.205 48.8511 34.8651 48.8511 31.9883H48.3011ZM43.6344 36.655C41.0382 36.655 38.9304 34.5594 38.9304 31.9883H38.3804C38.3804 34.867 40.7383 37.205 43.6344 37.205V36.655ZM38.9304 31.9883V29.6134H38.3804V31.9883H38.9304ZM38.6554 29.8884H48.5761V29.3384H38.6554V29.8884ZM60.7993 31.9883C60.7993 34.5593 58.6899 36.655 56.0935 36.655V37.205C58.9895 37.205 61.3493 34.8671 61.3493 31.9883H60.7993ZM56.0935 36.655C53.4971 36.655 51.3877 34.5593 51.3877 31.9883H50.8377C50.8377 34.8671 53.1975 37.205 56.0935 37.205V36.655ZM51.3877 31.9883V29.6134H50.8377V31.9883H51.3877ZM51.1127 29.8884H61.0547V29.3384H51.1127V29.8884ZM60.7798 29.6156L60.7993 31.9906L61.3493 31.9861L61.3297 29.6111L60.7798 29.6156ZM73.2957 31.9883C73.2957 34.5593 71.1862 36.655 68.5899 36.655V37.205C71.4859 37.205 73.8457 34.8671 73.8457 31.9883H73.2957ZM68.5899 36.655C65.9935 36.655 63.8841 34.5593 63.8841 31.9883H63.3341C63.3341 34.8671 65.6939 37.205 68.5899 37.205V36.655ZM63.8841 31.9883V29.6134H63.3341V31.9883H63.8841ZM63.6091 29.8884H73.5511V29.3384H63.6091V29.8884ZM73.2761 29.6156L73.2957 31.9906L73.8457 31.9861L73.8261 29.6111L73.2761 29.6156ZM85.792 31.9883C85.792 34.5593 83.6826 36.655 81.0863 36.655V37.205C83.9823 37.205 86.342 34.8671 86.342 31.9883H85.792ZM81.0863 36.655C78.49 36.655 76.3822 34.5594 76.3822 31.9883H75.8322C75.8322 34.867 78.1901 37.205 81.0863 37.205V36.655ZM76.3822 31.9883V29.6134H75.8322V31.9883H76.3822ZM76.1072 29.8884H86.0475V29.3384H76.1072V29.8884ZM85.7725 29.6156L85.7921 31.9906L86.342 31.9861L86.3225 29.6111L85.7725 29.6156ZM98.308 31.9883C98.308 34.5593 96.1985 36.655 93.6022 36.655V37.205C96.4982 37.205 98.858 34.8671 98.858 31.9883H98.308ZM93.6022 36.655C91.0058 36.655 88.8964 34.5593 88.8964 31.9883H88.3464C88.3464 34.8671 90.7062 37.205 93.6022 37.205V36.655ZM88.8964 31.9883V29.6134H88.3464V31.9883H88.8964ZM88.6214 29.8884H98.5634V29.3384H88.6214V29.8884ZM98.2884 29.6156L98.308 31.9906L98.858 31.9861L98.8384 29.6111L98.2884 29.6156ZM31.799 20.7777L105.401 20.7404L105.4 20.1904L31.7987 20.2277L31.799 20.7777ZM105.174 20.6211L109.703 27.2148L110.157 26.9033L105.627 20.3096L105.174 20.6211ZM109.93 26.784H27.287V27.334H109.93V26.784ZM27.5135 27.2149L32.0254 20.6586L31.5723 20.3468L27.0604 26.9031L27.5135 27.2149ZM32.692 13.3104C32.692 10.2975 35.151 7.84253 38.1758 7.84253V7.29253C34.8485 7.29253 32.142 9.99242 32.142 13.3104H32.692ZM38.1758 7.84253H99.043V7.29253H38.1758V7.84253ZM99.043 7.84253C102.056 7.84253 104.507 10.2966 104.507 13.3104H105.057C105.057 9.9933 102.361 7.29253 99.043 7.29253V7.84253ZM104.507 13.3104V17.8897H105.057V13.3104H104.507ZM104.782 17.6147H32.417V18.1647H104.782V17.6147ZM32.692 17.8897V13.3104H32.142V17.8897H32.692ZM114.333 27.5209V27.5191H113.783V27.5209H114.333ZM113.962 27.2617L113.375 27.4819L113.569 27.9968L114.155 27.7765L113.962 27.2617ZM113.721 27.6221L113.662 27.4978L113.165 27.7323L113.223 27.8566L113.721 27.6221ZM113.64 27.4596L107.567 18.5975L107.113 18.9084L113.187 27.7705L113.64 27.4596ZM107.615 18.753V13.3104H107.065V18.753H107.615ZM107.615 13.3104C107.615 8.58446 103.769 4.73818 99.043 4.73818V5.28818C103.465 5.28818 107.065 8.88822 107.065 13.3104H107.615ZM99.043 4.73818H38.1758V5.28818H99.043V4.73818ZM38.1758 4.73818C33.4498 4.73818 29.6054 8.58454 29.6054 13.3104H30.1554C30.1554 8.88814 33.7537 5.28818 38.1758 5.28818V4.73818ZM29.6054 13.3104V18.7921H30.1554V13.3104H29.6054ZM29.6539 18.6362L23.5895 27.4503L24.0426 27.762L30.107 18.9479L29.6539 18.6362ZM23.5701 27.4832C23.5607 27.502 23.5363 27.5529 23.5134 27.609L24.0228 27.8165C24.039 27.7766 24.0572 27.7388 24.062 27.7291L23.5701 27.4832ZM23.5211 27.5918L23.4359 27.7658L23.9298 28.0078L24.0151 27.8337L23.5211 27.5918ZM23.4241 27.7938C23.3576 27.9785 23.3279 28.1396 23.3279 28.3184H23.8779C23.8779 28.2095 23.8944 28.1113 23.9416 27.9798L23.4241 27.7938ZM23.3279 28.3184V31.9883H23.8779V28.3184H23.3279ZM23.3279 31.9883C23.3279 35.5759 25.7935 38.6811 29.3196 39.5419L29.45 39.0076C26.1657 38.2058 23.8779 35.3177 23.8779 31.9883H23.3279ZM29.3188 39.5417L29.7931 39.659L29.9251 39.125L29.4508 39.0078L29.3188 39.5417ZM29.5841 39.392V72.3515H30.1341V39.392H29.5841ZM29.5841 72.3515C29.5841 74.3664 30.3736 76.2657 31.8014 77.6954L32.1906 77.3067C30.8651 75.9796 30.1341 74.2197 30.1341 72.3515H29.5841ZM31.8063 77.7002C31.8599 77.7512 31.9283 77.8001 31.975 77.8339L32.2976 77.3885C32.2413 77.3477 32.2067 77.322 32.1857 77.3019L31.8063 77.7002ZM31.95 77.8135C32.2639 78.1026 32.5863 78.3942 32.9512 78.6431L33.2611 78.1887C32.9333 77.9651 32.6375 77.6989 32.3226 77.4089L31.95 77.8135ZM32.9537 78.6447C33.0186 78.688 33.0989 78.7261 33.1437 78.7492L33.3956 78.2602C33.3231 78.2229 33.2897 78.2077 33.2587 78.1871L32.9537 78.6447ZM33.1397 78.7471L33.312 78.8394L33.5718 78.3547L33.3995 78.2623L33.1397 78.7471ZM33.3027 78.8342C33.5751 78.9942 33.8524 79.1589 34.144 79.2982L34.3811 78.8019C34.115 78.6747 33.8594 78.5233 33.5811 78.3599L33.3027 78.8342ZM34.2626 79.325H34.7475V78.775H34.2626V79.325ZM34.473 79.067L34.4855 79.2678L35.0344 79.2337L35.022 79.033L34.473 79.067ZM34.6694 79.5104C35.4726 79.7904 36.3043 79.9325 37.1491 79.9325V79.3825C36.3667 79.3825 35.5962 79.2511 34.8505 78.9911L34.6694 79.5104ZM37.1491 79.9325H56.8129V79.3825H37.1491V79.9325ZM56.5379 79.6575V84.8053H57.0879V79.6575H56.5379ZM56.8129 84.5303H51.2619V85.0803H56.8129V84.5303ZM51.2619 84.5303C50.7157 84.5303 50.2035 84.8126 49.9265 85.275L50.3983 85.5577C50.5725 85.2669 50.9022 85.0803 51.2619 85.0803V84.5303ZM49.9269 85.2743L45.5305 92.5607L46.0015 92.8449L50.3978 85.5584L49.9269 85.2743ZM45.5313 92.5594C45.2367 93.0417 45.2387 93.6296 45.5191 94.1288L45.9987 93.8595C45.8101 93.5239 45.8157 93.149 46.0007 92.8461L45.5313 92.5594ZM45.5208 94.1317C45.7991 94.6135 46.3164 94.9211 46.8691 94.9211V94.3711C46.5195 94.3711 46.1805 94.1741 45.997 93.8566L45.5208 94.1317ZM46.8691 94.9211H90.3693V94.3711H46.8691V94.9211ZM90.3693 94.9211C90.9366 94.9211 91.4415 94.6235 91.7207 94.1295L91.2419 93.8589C91.0592 94.182 90.7363 94.3711 90.3693 94.3711V94.9211ZM91.7192 94.1321C91.9967 93.6535 91.9847 93.0379 91.7027 92.5552L91.2278 92.8326C91.4148 93.1528 91.417 93.5569 91.2434 93.8562L91.7192 94.1321ZM91.7007 92.5519L87.3115 85.2761L86.8405 85.5602L91.2298 92.836L91.7007 92.5519ZM87.3117 85.2765C87.0331 84.8129 86.5212 84.5303 85.9747 84.5303V85.0803C86.3341 85.0803 86.6641 85.2666 86.8403 85.5598L87.3117 85.2765ZM85.9747 84.5303H80.4237V85.0803H85.9747V84.5303ZM80.6987 84.8053V79.638H80.1487V84.8053H80.6987ZM80.4237 79.913H100.089V79.363H80.4237V79.913ZM100.089 79.913C104.249 79.913 107.633 76.5208 107.633 72.3515H107.083C107.083 76.2183 103.944 79.363 100.089 79.363V79.913ZM107.633 72.3515V39.3902H107.083V72.3515H107.633ZM107.422 39.6576L107.902 39.5421L107.773 39.0074L107.294 39.1229L107.422 39.6576ZM107.902 39.5422C111.426 38.6993 113.891 35.593 113.891 31.9883H113.341C113.341 35.3362 111.053 38.2231 107.774 39.0073L107.902 39.5422ZM113.891 31.9869L113.871 28.2584L113.321 28.2613L113.341 31.9898L113.891 31.9869ZM113.87 28.2838C113.887 28.0968 113.858 27.9426 113.803 27.8011L113.29 28.0009C113.317 28.069 113.331 28.1387 113.322 28.2359L113.87 28.2838ZM113.808 27.8141L113.783 27.7395L113.261 27.9134L113.286 27.988L113.808 27.8141ZM113.587 28.0935L113.667 28.074L113.536 27.5397L113.456 27.5593L113.587 28.0935ZM113.748 28.0399L114.204 27.7539L113.912 27.2878L113.456 27.5738L113.748 28.0399Z" fill="white"/>
<path fill-rule="evenodd" clip-rule="evenodd" d="M53.5868 59.2115C53.5868 58.8722 53.4554 58.5525 53.2138 58.3109L47.8493 52.9464H51.0502C51.7536 52.9464 52.3274 52.3727 52.3274 51.6693C52.3274 50.9641 51.7536 50.3921 51.0502 50.3921H44.7727C44.62 50.3921 44.4512 50.4276 44.2913 50.4951C43.9858 50.623 43.7265 50.8824 43.6004 51.1861C43.5329 51.3513 43.4938 51.5165 43.4938 51.6693V57.9645C43.4938 58.6697 44.0693 59.2435 44.7727 59.2435C45.4779 59.2435 46.0517 58.6697 46.0517 57.9645V54.7654L51.3966 60.1103C51.8744 60.5881 52.6898 60.6095 53.2244 60.0997C53.4554 59.8687 53.5868 59.5508 53.5868 59.2115Z" fill="white"/>
<path fill-rule="evenodd" clip-rule="evenodd" d="M53.5868 59.2115C53.5868 58.8722 53.4554 58.5525 53.2138 58.3109L47.8493 52.9464H51.0502C51.7536 52.9464 52.3274 52.3727 52.3274 51.6693C52.3274 50.9641 51.7536 50.3921 51.0502 50.3921H44.7727C44.62 50.3921 44.4512 50.4276 44.2913 50.4951C43.9858 50.623 43.7265 50.8824 43.6004 51.1861C43.5329 51.3513 43.4938 51.5165 43.4938 51.6693V57.9645C43.4938 58.6697 44.0693 59.2435 44.7727 59.2435C45.4779 59.2435 46.0517 58.6697 46.0517 57.9645V54.7654L51.3966 60.1103C51.8744 60.5881 52.6898 60.6095 53.2244 60.0997C53.4554 59.8687 53.5868 59.5508 53.5868 59.2115Z" stroke="white" stroke-width="0.55"/>
<path fill-rule="evenodd" clip-rule="evenodd" d="M135.66 49.8303C135.66 86.7386 105.74 116.661 68.8295 116.661C31.9212 116.661 2.00098 86.7386 2.00098 49.8303C2.00098 12.9203 31.9212 -17 68.8295 -17C105.74 -17 135.66 12.9203 135.66 49.8303Z" stroke="white" stroke-width="3.564"/>
</g>
</svg>
