<svg width="115" height="111" viewBox="0 0 115 111" fill="none" xmlns="http://www.w3.org/2000/svg">
<g opacity="0.796619">
<path fill-rule="evenodd" clip-rule="evenodd" d="M132.963 67.8477C132.963 103.81 103.81 132.964 67.8481 132.964C31.8844 132.964 2.73132 103.81 2.73132 67.8477C2.73132 31.884 31.8844 2.73096 67.8481 2.73096C103.81 2.73096 132.963 31.884 132.963 67.8477Z" stroke="white" stroke-width="3.6"/>
<path fill-rule="evenodd" clip-rule="evenodd" d="M36.3205 95.3491C33.3678 95.3491 30.9655 92.9468 30.9655 90.008V85.4526H104.727V90.008C104.727 92.9468 102.327 95.3491 99.3742 95.3491H36.3205ZM60.1913 103.856H75.5034V97.362H60.1913V103.856ZM79.1709 105.883C79.1138 105.883 79.0671 105.881 79.048 105.881C79.0774 105.881 79.1778 105.883 79.3665 105.883H79.3232H79.408L81.7948 108.821H53.8982L56.3005 105.869C73.6186 105.879 78.1878 105.881 79.1709 105.883ZM30.9724 49.7001C30.9724 46.756 33.3713 44.3607 36.3171 44.3607H36.9367V72.6709C36.9367 74.5643 38.4667 76.1064 40.3601 76.1064H95.3346C97.2263 76.1064 98.7563 74.5643 98.7563 72.6709V44.3607H99.3811C99.748 44.3607 100.108 44.3987 100.456 44.4697C101.707 44.7259 102.784 45.4372 103.552 46.403C104.274 47.3134 104.724 48.4505 104.724 49.7001V83.4328H30.9724V49.7001ZM38.9513 28.2974C38.9513 27.5047 39.5813 26.8747 40.3601 26.8747H95.3346C96.1134 26.8747 96.7434 27.5047 96.7434 28.2974V72.6709C96.7434 73.4635 96.1273 74.0935 95.3346 74.0935H40.3601C39.5813 74.0935 38.9513 73.4497 38.9513 72.6709V28.2974ZM99.3742 97.362C103.44 97.362 106.742 94.0597 106.742 90.008V49.7001C106.742 45.6466 103.44 42.346 99.3742 42.346H98.7563V28.2974C98.7563 26.3918 97.2263 24.8618 95.3346 24.8618H40.3601C38.4667 24.8618 36.9367 26.3918 36.9367 28.2974V42.346H36.3205C32.2532 42.346 28.9526 45.6466 28.9526 49.7001V90.008C28.9526 94.0597 32.2532 97.362 36.3205 97.362H58.1784V103.856H55.8176C55.5096 103.856 55.2274 104.003 55.0388 104.231L51.013 109.197C50.7586 109.491 50.7171 109.908 50.8798 110.256C51.0546 110.606 51.4024 110.833 51.7919 110.833H83.9011C84.2923 110.833 84.654 110.606 84.8149 110.256C84.9759 109.908 84.9361 109.491 84.6938 109.197L80.668 104.231C80.4673 104.003 80.1851 103.856 79.8771 103.856H77.5163V97.362H99.3742Z" fill="white"/>
<path d="M30.9655 85.4526V85.2026H30.7155V85.4526H30.9655ZM104.727 85.4526H104.977V85.2026H104.727V85.4526ZM60.1913 103.856H59.9413V104.106H60.1913V103.856ZM75.5034 103.856V104.106H75.7534V103.856H75.5034ZM75.5034 97.362H75.7534V97.112H75.5034V97.362ZM60.1913 97.362V97.112H59.9413V97.362H60.1913ZM79.1709 105.883V106.133L79.1713 105.633L79.1709 105.883ZM79.408 105.883L79.6021 105.725L79.5271 105.633H79.408V105.883ZM81.7948 108.821V109.071H82.3198L81.9888 108.664L81.7948 108.821ZM53.8982 108.821L53.7043 108.664L53.3725 109.071H53.8982V108.821ZM56.3005 105.869L56.3007 105.619L56.1817 105.619L56.1066 105.711L56.3005 105.869ZM36.9367 44.3607H37.1867V44.1107H36.9367V44.3607ZM98.7563 44.3607V44.1107H98.5063V44.3607H98.7563ZM100.456 44.4697L100.506 44.2248L100.506 44.2247L100.456 44.4697ZM103.552 46.403L103.748 46.2477L103.748 46.2473L103.552 46.403ZM104.724 83.4328V83.6828H104.974V83.4328H104.724ZM30.9724 83.4328H30.7224V83.6828H30.9724V83.4328ZM98.7563 42.346H98.5063V42.596H98.7563V42.346ZM36.9367 42.346V42.596H37.1867V42.346H36.9367ZM58.1784 97.362H58.4284V97.112H58.1784V97.362ZM58.1784 103.856V104.106H58.4284V103.856H58.1784ZM55.0388 104.231L54.846 104.072L54.8446 104.074L55.0388 104.231ZM51.013 109.197L51.2022 109.361L51.2072 109.354L51.013 109.197ZM50.8798 110.256L50.6532 110.362L50.6561 110.368L50.8798 110.256ZM84.8149 110.256L84.5881 110.151L84.5879 110.152L84.8149 110.256ZM84.6938 109.197L84.4996 109.354L84.5008 109.356L84.6938 109.197ZM80.668 104.231L80.8624 104.074L80.8558 104.066L80.668 104.231ZM77.5163 103.856H77.2663V104.106H77.5163V103.856ZM77.5163 97.362V97.112H77.2663V97.362H77.5163ZM36.3205 95.0991C33.5055 95.0991 31.2155 92.8083 31.2155 90.008H30.7155C30.7155 93.0853 33.2302 95.5991 36.3205 95.5991V95.0991ZM31.2155 90.008V85.4526H30.7155V90.008H31.2155ZM30.9655 85.7026H104.727V85.2026H30.9655V85.7026ZM104.477 85.4526V90.008H104.977V85.4526H104.477ZM104.477 90.008C104.477 92.8084 102.189 95.0991 99.3742 95.0991V95.5991C102.465 95.5991 104.977 93.0852 104.977 90.008H104.477ZM99.3742 95.0991H36.3205V95.5991H99.3742V95.0991ZM60.1913 104.106H75.5034V103.606H60.1913V104.106ZM75.7534 103.856V97.362H75.2534V103.856H75.7534ZM75.5034 97.112H60.1913V97.612H75.5034V97.112ZM59.9413 97.362V103.856H60.4413V97.362H59.9413ZM79.1709 105.633C79.1448 105.633 79.1208 105.632 79.1003 105.632C79.0825 105.631 79.0609 105.631 79.048 105.631V106.131C79.0541 106.131 79.0655 106.131 79.0901 106.132C79.112 106.132 79.1399 106.133 79.1709 106.133V105.633ZM79.048 106.131C79.0615 106.131 79.0906 106.131 79.1455 106.132C79.1984 106.132 79.2714 106.133 79.3665 106.133V105.633C79.2729 105.633 79.2014 105.632 79.1496 105.632C79.0998 105.631 79.064 105.631 79.048 105.631V106.131ZM79.3665 105.633H79.3232V106.133H79.3665V105.633ZM79.3232 106.133H79.408V105.633H79.3232V106.133ZM79.214 106.04L81.6007 108.979L81.9888 108.664L79.6021 105.725L79.214 106.04ZM81.7948 108.571H53.8982V109.071H81.7948V108.571ZM54.0921 108.979L56.4944 106.027L56.1066 105.711L53.7043 108.664L54.0921 108.979ZM56.3004 106.119C73.6187 106.129 78.1876 106.131 79.1705 106.133L79.1713 105.633C78.1881 105.631 73.6185 105.629 56.3007 105.619L56.3004 106.119ZM31.2224 49.7001C31.2224 46.8944 33.5091 44.6107 36.3171 44.6107V44.1107C33.2335 44.1107 30.7224 46.6177 30.7224 49.7001H31.2224ZM36.3171 44.6107H36.9367V44.1107H36.3171V44.6107ZM36.6867 44.3607V72.6709H37.1867V44.3607H36.6867ZM36.6867 72.6709C36.6867 74.7012 38.3275 76.3564 40.3601 76.3564V75.8564C38.6059 75.8564 37.1867 74.4274 37.1867 72.6709H36.6867ZM40.3601 76.3564H95.3346V75.8564H40.3601V76.3564ZM95.3346 76.3564C97.3656 76.3564 99.0063 74.7012 99.0063 72.6709H98.5063C98.5063 74.4275 97.087 75.8564 95.3346 75.8564V76.3564ZM99.0063 72.6709V44.3607H98.5063V72.6709H99.0063ZM98.7563 44.6107H99.3811V44.1107H98.7563V44.6107ZM99.3811 44.6107C99.7307 44.6107 100.074 44.6469 100.406 44.7147L100.506 44.2247C100.142 44.1505 99.7653 44.1107 99.3811 44.1107V44.6107ZM100.406 44.7146C101.595 44.958 102.621 45.6346 103.357 46.5586L103.748 46.2473C102.946 45.2398 101.82 44.4937 100.506 44.2248L100.406 44.7146ZM103.356 46.5583C104.047 47.4288 104.474 48.5122 104.474 49.7001H104.974C104.974 48.3887 104.501 47.1979 103.748 46.2477L103.356 46.5583ZM104.474 49.7001V83.4328H104.974V49.7001H104.474ZM104.724 83.1828H30.9724V83.6828H104.724V83.1828ZM31.2224 83.4328V49.7001H30.7224V83.4328H31.2224ZM39.2013 28.2974C39.2013 27.6412 39.721 27.1247 40.3601 27.1247V26.6247C39.4416 26.6247 38.7013 27.3682 38.7013 28.2974H39.2013ZM40.3601 27.1247H95.3346V26.6247H40.3601V27.1247ZM95.3346 27.1247C95.9737 27.1247 96.4934 27.6412 96.4934 28.2974H96.9934C96.9934 27.3682 96.2531 26.6247 95.3346 26.6247V27.1247ZM96.4934 28.2974V72.6709H96.9934V28.2974H96.4934ZM96.4934 72.6709C96.4934 73.3287 95.986 73.8435 95.3346 73.8435V74.3435C96.2685 74.3435 96.9934 73.5984 96.9934 72.6709H96.4934ZM95.3346 73.8435H40.3601V74.3435H95.3346V73.8435ZM40.3601 73.8435C39.7225 73.8435 39.2013 73.3148 39.2013 72.6709H38.7013C38.7013 73.5846 39.4401 74.3435 40.3601 74.3435V73.8435ZM39.2013 72.6709V28.2974H38.7013V72.6709H39.2013ZM99.3742 97.612C103.578 97.612 106.992 94.1981 106.992 90.008H106.492C106.492 93.9213 103.302 97.112 99.3742 97.112V97.612ZM106.992 90.008V49.7001H106.492V90.008H106.992ZM106.992 49.7001C106.992 45.5082 103.577 42.096 99.3742 42.096V42.596C103.302 42.596 106.492 45.785 106.492 49.7001H106.992ZM99.3742 42.096H98.7563V42.596H99.3742V42.096ZM99.0063 42.346V28.2974H98.5063V42.346H99.0063ZM99.0063 28.2974C99.0063 26.2544 97.365 24.6118 95.3346 24.6118V25.1118C97.0876 25.1118 98.5063 26.5292 98.5063 28.2974H99.0063ZM95.3346 24.6118H40.3601V25.1118H95.3346V24.6118ZM40.3601 24.6118C38.328 24.6118 36.6867 26.2543 36.6867 28.2974H37.1867C37.1867 26.5293 38.6053 25.1118 40.3601 25.1118V24.6118ZM36.6867 28.2974V42.346H37.1867V28.2974H36.6867ZM36.9367 42.096H36.3205V42.596H36.9367V42.096ZM36.3205 42.096C32.1154 42.096 28.7026 45.5082 28.7026 49.7001H29.2026C29.2026 45.785 32.391 42.596 36.3205 42.596V42.096ZM28.7026 49.7001V90.008H29.2026V49.7001H28.7026ZM28.7026 90.008C28.7026 94.198 32.1154 97.612 36.3205 97.612V97.112C32.391 97.112 29.2026 93.9214 29.2026 90.008H28.7026ZM36.3205 97.612H58.1784V97.112H36.3205V97.612ZM57.9284 97.362V103.856H58.4284V97.362H57.9284ZM58.1784 103.606H55.8176V104.106H58.1784V103.606ZM55.8176 103.606C55.4287 103.606 55.078 103.791 54.846 104.072L55.2316 104.391C55.3769 104.215 55.5905 104.106 55.8176 104.106V103.606ZM54.8446 104.074L50.8188 109.04L51.2072 109.354L55.233 104.389L54.8446 104.074ZM50.8239 109.033C50.4999 109.408 50.4522 109.932 50.6533 110.362L51.1062 110.15C50.9819 109.884 51.0173 109.574 51.2021 109.361L50.8239 109.033ZM50.6561 110.368C50.8708 110.797 51.3024 111.083 51.7919 111.083V110.583C51.5025 110.583 51.2383 110.414 51.1034 110.144L50.6561 110.368ZM51.7919 111.083H83.9011V110.583H51.7919V111.083ZM83.9011 111.083C84.3868 111.083 84.839 110.802 85.042 110.361L84.5879 110.152C84.469 110.41 84.1978 110.583 83.9011 110.583V111.083ZM85.0418 110.361C85.2399 109.933 85.1949 109.412 84.8868 109.038L84.5008 109.356C84.6773 109.57 84.7119 109.884 84.5881 110.151L85.0418 110.361ZM84.888 109.04L80.8622 104.074L80.4738 104.389L84.4996 109.354L84.888 109.04ZM80.8558 104.066C80.6146 103.792 80.2671 103.606 79.8771 103.606V104.106C80.1032 104.106 80.3199 104.214 80.4802 104.396L80.8558 104.066ZM79.8771 103.606H77.5163V104.106H79.8771V103.606ZM77.7663 103.856V97.362H77.2663V103.856H77.7663ZM77.5163 97.612H99.3742V97.112H77.5163V97.612Z" fill="white"/>
<path fill-rule="evenodd" clip-rule="evenodd" d="M63.1762 89.3916H61.281C60.7254 89.3916 60.2754 89.8433 60.2754 90.3989C60.2754 90.9528 60.7254 91.4045 61.281 91.4045H63.1762C63.7317 91.4045 64.1835 90.9528 64.1835 90.3989C64.1835 89.8433 63.7317 89.3916 63.1762 89.3916Z" fill="white"/>
<path fill-rule="evenodd" clip-rule="evenodd" d="M63.1762 89.3916H61.281C60.7254 89.3916 60.2754 89.8433 60.2754 90.3989C60.2754 90.9528 60.7254 91.4045 61.281 91.4045H63.1762C63.7317 91.4045 64.1835 90.9528 64.1835 90.3989C64.1835 89.8433 63.7317 89.3916 63.1762 89.3916Z" stroke="white" stroke-width="0.5"/>
<path fill-rule="evenodd" clip-rule="evenodd" d="M68.7962 89.3916H66.901C66.3454 89.3916 65.8954 89.8433 65.8954 90.3989C65.8954 90.9528 66.3454 91.4045 66.901 91.4045H68.7962C69.3517 91.4045 69.8035 90.9528 69.8035 90.3989C69.8035 89.8433 69.3517 89.3916 68.7962 89.3916Z" fill="white"/>
<path fill-rule="evenodd" clip-rule="evenodd" d="M68.7962 89.3916H66.901C66.3454 89.3916 65.8954 89.8433 65.8954 90.3989C65.8954 90.9528 66.3454 91.4045 66.901 91.4045H68.7962C69.3517 91.4045 69.8035 90.9528 69.8035 90.3989C69.8035 89.8433 69.3517 89.3916 68.7962 89.3916Z" stroke="white" stroke-width="0.5"/>
<path fill-rule="evenodd" clip-rule="evenodd" d="M74.4162 89.3916H72.521C71.9654 89.3916 71.5137 89.8433 71.5137 90.3989C71.5137 90.9528 71.9654 91.4045 72.521 91.4045H74.4162C74.9717 91.4045 75.4217 90.9528 75.4217 90.3989C75.4217 89.8433 74.9717 89.3916 74.4162 89.3916Z" fill="white"/>
<path fill-rule="evenodd" clip-rule="evenodd" d="M74.4162 89.3916H72.521C71.9654 89.3916 71.5137 89.8433 71.5137 90.3989C71.5137 90.9528 71.9654 91.4045 72.521 91.4045H74.4162C74.9717 91.4045 75.4217 90.9528 75.4217 90.3989C75.4217 89.8433 74.9717 89.3916 74.4162 89.3916Z" stroke="white" stroke-width="0.5"/>
<mask id="mask0" mask-type="alpha" maskUnits="userSpaceOnUse" x="1" y="0" width="134" height="135">
<path fill-rule="evenodd" clip-rule="evenodd" d="M1 134.695H134.695V0.999512H1V134.695Z" fill="white"/>
</mask>
<g mask="url(#mask0)">
<path fill-rule="evenodd" clip-rule="evenodd" d="M43.7812 61.5468H91.9139V31.7309H43.7812V61.5468ZM42.7756 63.5597H92.9195C93.4698 63.5597 93.9268 63.1045 93.9268 62.5541V30.7253C93.9268 30.1611 93.4698 29.7197 92.9195 29.7197H42.7756C42.2252 29.7197 41.7683 30.1611 41.7683 30.7253V62.5541C41.7683 63.1045 42.2252 63.5597 42.7756 63.5597Z" fill="white"/>
<path d="M43.7812 61.5468H43.5312V61.7968H43.7812V61.5468ZM91.9139 61.5468V61.7968H92.1639V61.5468H91.9139ZM91.9139 31.7309H92.1639V31.4809H91.9139V31.7309ZM43.7812 31.7309V31.4809H43.5312V31.7309H43.7812ZM43.7812 61.7968H91.9139V61.2968H43.7812V61.7968ZM92.1639 61.5468V31.7309H91.6639V61.5468H92.1639ZM91.9139 31.4809H43.7812V31.9809H91.9139V31.4809ZM43.5312 31.7309V61.5468H44.0312V31.7309H43.5312ZM42.7756 63.8097H92.9195V63.3097H42.7756V63.8097ZM92.9195 63.8097C93.6074 63.8097 94.1768 63.2432 94.1768 62.5541H93.6768C93.6768 62.9659 93.3323 63.3097 92.9195 63.3097V63.8097ZM94.1768 62.5541V30.7253H93.6768V62.5541H94.1768ZM94.1768 30.7253C94.1768 30.0202 93.6051 29.4697 92.9195 29.4697V29.9697C93.3346 29.9697 93.6768 30.3019 93.6768 30.7253H94.1768ZM92.9195 29.4697H42.7756V29.9697H92.9195V29.4697ZM42.7756 29.4697C42.09 29.4697 41.5183 30.0202 41.5183 30.7253H42.0183C42.0183 30.3019 42.3605 29.9697 42.7756 29.9697V29.4697ZM41.5183 30.7253V62.5541H42.0183V30.7253H41.5183ZM41.5183 62.5541C41.5183 63.2432 42.0877 63.8097 42.7756 63.8097V63.3097C42.3627 63.3097 42.0183 62.9659 42.0183 62.5541H41.5183Z" fill="white"/>
<path fill-rule="evenodd" clip-rule="evenodd" d="M51.497 66.9685C51.497 66.8612 51.5783 66.7678 51.6977 66.7678H54.2472C54.3683 66.7678 54.4479 66.8612 54.4479 66.9685V70.6845C54.4479 70.7918 54.3683 70.887 54.2472 70.887H51.6977C51.5783 70.887 51.497 70.7918 51.497 70.6845V66.9685ZM42.7756 69.826H49.4841V70.6845C49.4841 71.9064 50.4775 72.8999 51.6977 72.8999H54.2472C55.4691 72.8999 56.4608 71.9064 56.4608 70.6845V69.826H92.9195C93.4698 69.826 93.9268 69.3847 93.9268 68.8205C93.9268 68.2701 93.4698 67.8132 92.9195 67.8132H56.4608V66.9685C56.4608 65.7466 55.4691 64.7549 54.2472 64.7549H51.6977C50.4775 64.7549 49.4841 65.7466 49.4841 66.9685V67.8132H42.7756C42.2252 67.8132 41.7683 68.2701 41.7683 68.8205C41.7683 69.3847 42.2252 69.826 42.7756 69.826Z" fill="white"/>
<path d="M49.4841 69.826H49.7341V69.576H49.4841V69.826ZM56.4608 69.826V69.576H56.2108V69.826H56.4608ZM56.4608 67.8132H56.2108V68.0632H56.4608V67.8132ZM49.4841 67.8132V68.0632H49.7341V67.8132H49.4841ZM51.747 66.9685C51.747 66.9781 51.7432 66.9903 51.733 67.0009C51.7278 67.0063 51.7214 67.0109 51.7142 67.0139C51.7069 67.0171 51.7009 67.0178 51.6977 67.0178V66.5178C51.4304 66.5178 51.247 66.7332 51.247 66.9685H51.747ZM51.6977 67.0178H54.2472V66.5178H51.6977V67.0178ZM54.2472 67.0178C54.2449 67.0178 54.2391 67.0172 54.2316 67.014C54.2243 67.0109 54.2175 67.0062 54.212 67.0004C54.2011 66.9889 54.1979 66.9766 54.1979 66.9685H54.6979C54.6979 66.7347 54.5176 66.5178 54.2472 66.5178V67.0178ZM54.1979 66.9685V70.6845H54.6979V66.9685H54.1979ZM54.1979 70.6845C54.1979 70.6767 54.2008 70.6654 54.211 70.6546C54.2162 70.649 54.2228 70.6443 54.2304 70.641C54.238 70.6377 54.2442 70.637 54.2472 70.637V71.137C54.5203 71.137 54.6979 70.9156 54.6979 70.6845H54.1979ZM54.2472 70.637H51.6977V71.137H54.2472V70.637ZM51.6977 70.637C51.7016 70.637 51.708 70.6379 51.7155 70.6411C51.7228 70.6443 51.7291 70.6489 51.734 70.654C51.7435 70.664 51.747 70.6752 51.747 70.6845H51.247C51.247 70.917 51.4277 71.137 51.6977 71.137V70.637ZM51.747 70.6845V66.9685H51.247V70.6845H51.747ZM42.7756 70.076H49.4841V69.576H42.7756V70.076ZM49.2341 69.826V70.6845H49.7341V69.826H49.2341ZM49.2341 70.6845C49.2341 72.0444 50.3393 73.1499 51.6977 73.1499V72.6499C50.6157 72.6499 49.7341 71.7685 49.7341 70.6845H49.2341ZM51.6977 73.1499H54.2472V72.6499H51.6977V73.1499ZM54.2472 73.1499C55.6074 73.1499 56.7108 72.0442 56.7108 70.6845H56.2108C56.2108 71.7686 55.3308 72.6499 54.2472 72.6499V73.1499ZM56.7108 70.6845V69.826H56.2108V70.6845H56.7108ZM56.4608 70.076H92.9195V69.576H56.4608V70.076ZM92.9195 70.076C93.6051 70.076 94.1768 69.5256 94.1768 68.8205H93.6768C93.6768 69.2438 93.3346 69.576 92.9195 69.576V70.076ZM94.1768 68.8205C94.1768 68.132 93.6079 67.5632 92.9195 67.5632V68.0632C93.3318 68.0632 93.6768 68.4081 93.6768 68.8205H94.1768ZM92.9195 67.5632H56.4608V68.0632H92.9195V67.5632ZM56.7108 67.8132V66.9685H56.2108V67.8132H56.7108ZM56.7108 66.9685C56.7108 65.6085 55.6072 64.5049 54.2472 64.5049V65.0049C55.331 65.0049 56.2108 65.8847 56.2108 66.9685H56.7108ZM54.2472 64.5049H51.6977V65.0049H54.2472V64.5049ZM51.6977 64.5049C50.3396 64.5049 49.2341 65.6084 49.2341 66.9685H49.7341C49.7341 65.8848 50.6155 65.0049 51.6977 65.0049V64.5049ZM49.2341 66.9685V67.8132H49.7341V66.9685H49.2341ZM49.4841 67.5632H42.7756V68.0632H49.4841V67.5632ZM42.7756 67.5632C42.0872 67.5632 41.5183 68.132 41.5183 68.8205H42.0183C42.0183 68.4081 42.3633 68.0632 42.7756 68.0632V67.5632ZM41.5183 68.8205C41.5183 69.5256 42.09 70.076 42.7756 70.076V69.576C42.3605 69.576 42.0183 69.2438 42.0183 68.8205H41.5183Z" fill="white"/>
<path fill-rule="evenodd" clip-rule="evenodd" d="M76.6033 56.8375H59.0914V53.1873C59.0914 49.994 61.7342 47.4048 64.9829 47.4048C69.341 47.4619 68.306 47.4411 70.7135 47.4048C73.9604 47.4048 76.6033 49.994 76.6033 53.1873V56.8375ZM67.8421 36.4404C70.376 36.4404 72.4304 38.4532 72.4304 40.9369C72.4304 43.2094 70.7083 45.1236 68.4046 45.3919C68.2714 45.3261 64.7008 45.9077 63.4927 42.3457C63.3456 41.9027 63.2642 41.4336 63.2642 40.9369C63.2642 38.4532 65.3169 36.4404 67.8421 36.4404ZM72.4564 45.5927C73.8271 44.2202 74.4433 42.569 74.4433 40.9369C74.4433 37.3404 71.4767 34.4292 67.8421 34.4292C64.2179 34.4292 61.2531 37.3404 61.2531 40.9369C61.2531 42.5967 61.8865 44.2409 63.2383 45.5927C59.7092 46.3715 57.0802 49.4834 57.0802 53.1873V57.8448C57.0802 58.4073 57.5337 58.8504 58.0858 58.8504H77.6089C78.1731 58.8504 78.6162 58.4073 78.6162 57.8448V53.1873C78.6162 49.4834 75.9871 46.3715 72.4564 45.5927Z" fill="white"/>
<path d="M76.6033 56.8375V57.0875H76.8533V56.8375H76.6033ZM59.0914 56.8375H58.8414V57.0875H59.0914V56.8375ZM64.9829 47.4048L64.9862 47.1548H64.9829V47.4048ZM70.7135 47.4048V47.1547L70.7097 47.1548L70.7135 47.4048ZM68.4046 45.3919L68.294 45.6161L68.3602 45.6488L68.4335 45.6402L68.4046 45.3919ZM63.4927 42.3457L63.2554 42.4245L63.2559 42.426L63.4927 42.3457ZM72.4564 45.5927L72.2795 45.416L71.9573 45.7386L72.4025 45.8368L72.4564 45.5927ZM63.2383 45.5927L63.2922 45.8368L63.7376 45.7385L63.4151 45.4159L63.2383 45.5927ZM76.6033 56.5875H59.0914V57.0875H76.6033V56.5875ZM59.3414 56.8375V53.1873H58.8414V56.8375H59.3414ZM59.3414 53.1873C59.3414 50.1366 61.8678 47.6548 64.9829 47.6548V47.1548C61.6007 47.1548 58.8414 49.8514 58.8414 53.1873H59.3414ZM64.9796 47.6548C69.341 47.7119 68.3087 47.6911 70.7172 47.6547L70.7097 47.1548C68.3033 47.1911 69.3409 47.2119 64.9862 47.1548L64.9796 47.6548ZM70.7135 47.6548C73.8268 47.6548 76.3533 50.1365 76.3533 53.1873H76.8533C76.8533 49.8515 74.094 47.1548 70.7135 47.1548V47.6548ZM76.3533 53.1873V56.8375H76.8533V53.1873H76.3533ZM67.8421 36.6904C70.2427 36.6904 72.1804 38.5961 72.1804 40.9369H72.6804C72.6804 38.3104 70.5092 36.1904 67.8421 36.1904V36.6904ZM72.1804 40.9369C72.1804 43.0795 70.5563 44.8896 68.3757 45.1436L68.4335 45.6402C70.8602 45.3576 72.6804 43.3393 72.6804 40.9369H72.1804ZM68.5153 45.1677C68.4641 45.1425 68.4128 45.1392 68.404 45.1384C68.3833 45.1366 68.3616 45.1361 68.3424 45.136C68.3039 45.1357 68.2534 45.137 68.199 45.1383C68.0869 45.1409 67.9371 45.1442 67.7578 45.1392C67.3986 45.1292 66.9247 45.086 66.4215 44.9398C65.4246 44.6502 64.3026 43.9554 63.7295 42.2654L63.2559 42.426C63.8909 44.298 65.1582 45.0934 66.282 45.4199C66.8391 45.5818 67.3583 45.6282 67.7438 45.639C67.9368 45.6444 68.0973 45.6408 68.2107 45.6381C68.2691 45.6368 68.3101 45.6358 68.3391 45.636C68.3459 45.636 68.3511 45.6361 68.355 45.6363C68.3591 45.6364 68.3607 45.6365 68.3604 45.6365C68.3602 45.6365 68.3591 45.6364 68.3573 45.6362C68.3555 45.6359 68.3523 45.6355 68.348 45.6346C68.3428 45.6336 68.3208 45.6293 68.294 45.6161L68.5153 45.1677ZM63.73 42.267C63.5909 41.8482 63.5142 41.4058 63.5142 40.9369H63.0142C63.0142 41.4615 63.1002 41.9571 63.2554 42.4245L63.73 42.267ZM63.5142 40.9369C63.5142 38.5956 65.4506 36.6904 67.8421 36.6904V36.1904C65.1832 36.1904 63.0142 38.3108 63.0142 40.9369H63.5142ZM72.6332 45.7693C74.0511 44.3497 74.6933 42.6349 74.6933 40.9369H74.1933C74.1933 42.5031 73.6032 44.0906 72.2795 45.416L72.6332 45.7693ZM74.6933 40.9369C74.6933 37.1986 71.6111 34.1792 67.8421 34.1792V34.6792C71.3424 34.6792 74.1933 37.4821 74.1933 40.9369H74.6933ZM67.8421 34.1792C64.0832 34.1792 61.0031 37.1989 61.0031 40.9369H61.5031C61.5031 37.4818 64.3526 34.6792 67.8421 34.6792V34.1792ZM61.0031 40.9369C61.0031 42.6634 61.6632 44.3711 63.0615 45.7694L63.4151 45.4159C62.1099 44.1107 61.5031 42.53 61.5031 40.9369H61.0031ZM63.1844 45.3485C59.5452 46.1517 56.8302 49.3617 56.8302 53.1873H57.3302C57.3302 49.6052 59.8733 46.5913 63.2922 45.8368L63.1844 45.3485ZM56.8302 53.1873V57.8448H57.3302V53.1873H56.8302ZM56.8302 57.8448C56.8302 58.547 57.3973 59.1004 58.0858 59.1004V58.6004C57.67 58.6004 57.3302 58.2675 57.3302 57.8448H56.8302ZM58.0858 59.1004H77.6089V58.6004H58.0858V59.1004ZM77.6089 59.1004C78.3109 59.1004 78.8662 58.5456 78.8662 57.8448H78.3662C78.3662 58.2689 78.0353 58.6004 77.6089 58.6004V59.1004ZM78.8662 57.8448V53.1873H78.3662V57.8448H78.8662ZM78.8662 53.1873C78.8662 49.3616 76.1511 46.1517 72.5102 45.3485L72.4025 45.8368C75.8231 46.5913 78.3662 49.6052 78.3662 53.1873H78.8662Z" fill="white"/>
</g>
</g>
</svg>
