<svg width="18" height="30" viewBox="0 0 18 30" fill="none" xmlns="http://www.w3.org/2000/svg">
<path fill-rule="evenodd" clip-rule="evenodd" d="M8.96272 1.14901C7.82668 1.14901 6.69022 1.15651 5.55459 1.14338C5.30995 1.14076 5.18886 1.21013 5.10418 1.41788C4.44186 3.04801 3.74477 4.66688 3.10741 6.30526C2.54122 7.75838 1.96645 9.21413 1.523 10.7006C0.850042 12.9593 1.37122 14.9824 3.25468 16.635C4.78427 17.9779 6.64522 18.7759 8.65222 19.3125C8.8535 19.3661 9.10427 19.3515 9.30882 19.2964C10.9554 18.8524 12.4997 18.2089 13.8673 17.2436C16.2585 15.5561 17.1327 13.3654 16.3615 10.6815C16.0494 9.59476 15.6383 8.53013 15.2222 7.47151C14.4274 5.45026 13.5932 3.44138 12.7857 1.42426C12.6965 1.20188 12.5672 1.14001 12.3152 1.14301C11.198 1.15688 10.0804 1.14901 8.96272 1.14901ZM4.09536 28.7363C4.84563 28.5101 5.60777 28.317 6.36622 28.1145C6.527 28.0714 6.69186 28.0433 6.8555 28.0091C7.70763 27.8318 8.17318 27.3754 8.29713 26.5766C8.33477 26.3321 8.35686 26.0835 8.35727 25.8368C8.36136 23.4971 8.35604 23.0325 8.36627 20.6929C8.36709 20.478 8.28895 20.4041 8.07704 20.3456C6.41654 19.8863 4.8575 19.2311 3.45677 18.2828C0.434814 16.2368 -0.677095 13.4389 0.404133 10.1415C1.45386 6.93976 2.68441 3.79013 4.08718 0.699384C4.32322 0.179259 4.60672 -0.00974102 5.24491 0.000383981C7.85204 0.042384 10.4604 0.022884 13.0684 0.011259C13.3457 0.00975898 13.4938 0.087384 13.5924 0.315384C14.141 1.58401 14.7362 2.83688 15.241 4.11938C16.0212 6.10088 16.7874 8.08876 17.473 10.0988C18.0867 11.898 18.0605 13.7036 17.1294 15.4361C16.3914 16.8086 15.2284 17.826 13.8505 18.6525C12.5959 19.4055 11.2377 19.9575 9.80177 20.346C9.5825 20.4056 9.51827 20.4904 9.51909 20.6978C9.5285 23.0291 9.52072 23.4851 9.53013 25.8161C9.53136 26.1383 9.56695 26.466 9.63977 26.7806C9.7944 27.4455 10.2526 27.8486 10.9812 28.0016C11.7691 28.1674 12.559 28.3324 13.3384 28.5293C13.6472 28.6069 13.9365 28.7588 14.2212 28.8998C14.3038 28.9403 14.3402 29.0591 14.3971 29.1424C14.3132 29.1885 14.2339 29.2635 14.1443 29.2763C13.3817 29.385 12.6204 29.5189 11.8525 29.5759C9.5735 29.7454 7.29363 29.7281 5.01991 29.4836C4.50813 29.4285 4.00291 29.3239 3.49481 29.2421C3.48091 29.1911 3.467 29.1401 3.45309 29.0891C3.66663 28.9688 3.86381 28.806 4.09536 28.7363Z" fill="#DCBA80"/>
<path fill-rule="evenodd" clip-rule="evenodd" d="M15.2689 10.0438C15.7921 11.5097 16.0118 12.9497 15.3347 14.3964C14.9199 15.2818 14.233 15.9722 13.4153 16.5579C12.1291 17.4793 10.6711 18.0894 9.11777 18.5203C9.01672 18.5484 8.89072 18.5559 8.79172 18.5282C7.12181 18.0602 5.55786 17.4006 4.20909 16.3618C2.30968 14.8993 1.76681 13.0491 2.35181 10.8797C2.4185 10.6314 2.53018 10.3926 2.5809 10.1421C2.64186 9.84057 2.83618 9.74157 3.1434 9.68532C4.67218 9.40595 6.15595 9.51807 7.61804 10.0183C8.4534 10.3037 9.29777 10.5849 10.1622 10.7773C11.8255 11.1474 13.4333 10.9577 14.9469 10.1991C15.0443 10.1503 15.1433 10.1042 15.2689 10.0438Z" fill="#DCBA80"/>
</svg>
